<svg xmlns="http://www.w3.org/2000/svg" width="105" height="122" fill="none" viewBox="0 0 105 122">
  <path fill="#fff" fill-rule="evenodd" d="M70.182 66.91l-35.13.017c-9.618-.035-17.41-7.376-17.421-16.437l-.035-25.144h23.211V50.49h23.416V25.346h23.211v24.082c.02.345.034.694.034 1.046 0 9.024-7.724 16.35-17.286 16.436zM17.596 20.9h69.838V1.172H17.596v19.727z" clip-rule="evenodd"/>
  <path stroke="#fff" stroke-width=".5" d="M70.182 66.91l-35.13.017c-9.618-.035-17.41-7.376-17.421-16.437l-.035-25.144h23.211V50.49h23.416V25.346h23.211v24.082c.02.345.034.694.034 1.046 0 9.024-7.724 16.35-17.286 16.436zM17.596 20.9h69.838V1.172H17.596v19.727z" clip-rule="evenodd"/>
  <path fill="#fff" fill-rule="evenodd" d="M28.344 78.23l-3.047 6.202h6.156l-3.109-6.202zm-2.166-6.896h4.328l10.552 21.051h-5.62l-2.07-4.135h-9.943l-2.029 4.135h-5.59l10.373-21.05zM77.534 72.456v5.131c-2.802-1.366-5.254-2.05-7.357-2.05-2.104 0-3.788.588-5.053 1.764-1.261 1.174-1.891 2.756-1.891 4.745 0 1.879.664 3.385 1.992 4.51 1.327 1.132 3.102 1.694 5.325 1.694 1.946 0 4.275-.635 6.984-1.907v5.097c-3.039.823-5.568 1.236-7.595 1.236-3.483 0-6.444-1.04-8.875-3.12-2.434-2.077-3.651-4.614-3.651-7.606 0-3.05 1.24-5.624 3.719-7.736 2.481-2.111 5.492-3.168 9.045-3.168 2.289 0 4.74.472 7.357 1.41zM91.277 78.23l-3.047 6.202h6.155l-3.108-6.202zm-2.167-6.896h4.327l10.553 21.051h-5.62L96.3 88.25h-9.941l-2.029 4.135h-5.59l10.371-21.05zM59.529 90.889c-1.08-.92-1.903-1.94-2.505-3.04h-7.997V71.335h-5.543v21.051h18.223a12.54 12.54 0 01-2.178-1.496zM17.706 71.334H.496v4.476h5.899v16.575h5.58V75.81h5.713l.018-4.476zM6.543 96.763H8.88v5.699c0 .53.173.955.519 1.277.346.322.802.482 1.366.482.647 0 1.15-.161 1.507-.486.357-.323.535-.78.535-1.372v-5.6h2.33v6.032c0 .53-.163 1.079-.487 1.65-.323.571-.822 1.007-1.495 1.309-.673.304-1.425.455-2.257.455-1.507 0-2.61-.356-3.308-1.068-.699-.712-1.047-1.461-1.047-2.246v-6.132zM24.53 96.763h2.32v9.319h-2.31l-5.028-6.033v6.033h-2.37v-9.32h2.344l5.043 5.99v-5.99z" clip-rule="evenodd"/>
  <mask id="a" width="105" height="121" x="0" y="1" maskUnits="userSpaceOnUse">
    <path fill="#fff" d="M.495 121.904h103.727V1.091H.495v120.813z"/>
  </mask>
  <g mask="url(#a)">
    <path fill="#fff" fill-rule="evenodd" d="M28.771 106.081h2.37v-9.319h-2.37v9.319zM32.268 96.763h2.399l2.78 6.196 2.786-6.196h2.403l-4.163 9.319h-2.058l-4.147-9.32zM43.905 96.763h6.19v1.846h-3.82v1.88h3.82v1.817h-3.82v1.93h3.82v1.846h-6.19v-9.32zM54.295 98.423v2.427h.512c1.24 0 1.857-.427 1.857-1.284 0-.35-.161-.629-.484-.834-.32-.206-.769-.309-1.34-.309h-.545zm-2.388-1.66h3.623c1.1 0 1.972.246 2.612.737.64.492.96 1.157.96 1.994 0 .477-.147.974-.44 1.49-.295.515-.835.919-1.624 1.212l3.077 3.885h-2.723l-2.846-3.605h-.269v3.605h-2.37v-9.318zM67.933 97.607l-1.474 1.37c-.776-.388-1.335-.583-1.674-.583a.99.99 0 00-.68.253.775.775 0 00-.284.6c0 .459.49.857 1.475 1.193.719.259 1.264.495 1.632.705.369.212.678.503.925.876.249.374.374.78.374 1.214 0 .8-.382 1.496-1.143 2.088-.763.59-1.663.886-2.701.886-1.138 0-2.264-.455-3.375-1.363l1.557-1.539c.698.61 1.35.915 1.96.915.285 0 .558-.108.82-.322.262-.214.393-.439.393-.676 0-.486-.606-.915-1.817-1.286-.692-.214-1.183-.414-1.473-.602-.29-.186-.534-.458-.732-.815a2.224 2.224 0 01-.298-1.097c0-.828.318-1.5.955-2.016.637-.515 1.467-.773 2.496-.773 1.217 0 2.237.324 3.064.972zM69.638 106.081h2.37v-9.319h-2.37v9.319zM76.375 98.523v5.756h.939c.97 0 1.769-.225 2.394-.674.625-.45.938-1.2.938-2.25 0-.611-.15-1.152-.452-1.622-.302-.47-.738-.79-1.31-.958a5.833 5.833 0 00-1.638-.252h-.871zm-2.387-1.76h3.752c1.603 0 2.893.429 3.87 1.284.976.857 1.465 1.984 1.465 3.386 0 1.405-.504 2.531-1.511 3.378-1.008.847-2.35 1.271-4.025 1.271h-3.55v-9.32zM88.293 99.815L87 102.56h2.613l-1.32-2.746zm-.917-3.052h1.835l4.48 9.319h-2.385l-.88-1.832h-4.22l-.863 1.832H82.97l4.405-9.32zM97.521 98.523v5.756h.94c.97 0 1.768-.225 2.394-.674.625-.45.938-1.2.938-2.25 0-.611-.151-1.152-.452-1.622-.302-.47-.739-.79-1.311-.958a5.834 5.834 0 00-1.638-.252h-.87zm-2.386-1.76h3.752c1.603 0 2.893.429 3.869 1.284.977.857 1.466 1.984 1.466 3.386 0 1.405-.504 2.531-1.511 3.378-1.008.847-2.35 1.271-4.025 1.271h-3.55v-9.32zM45.053 113.676v1.273c-.942-.435-1.81-.652-2.601-.652-1.016 0-1.872.309-2.567.926-.696.618-1.044 1.376-1.044 2.276 0 .917.356 1.682 1.068 2.296.71.612 1.602.919 2.674.919.777 0 1.6-.231 2.47-.691v1.287a5.684 5.684 0 01-2.573.594c-1.355 0-2.513-.431-3.474-1.295-.961-.863-1.441-1.905-1.441-3.123 0-1.197.472-2.222 1.417-3.074.945-.853 2.083-1.279 3.415-1.279.855 0 1.742.181 2.657.543zM46.375 113.391h1.194v3.168h4.18v-3.168h1.182v8.235H51.75v-3.955h-4.18v3.955h-1.195v-8.235zM54.663 121.626h1.181v-8.235h-1.18v8.235zM57.797 113.391h1.181v7.123h2.849v1.112h-4.03v-8.235zM62.798 113.391h4.846v1.125h-3.666v2.056h3.666v1.111h-3.666v2.831h3.666v1.112h-4.846v-8.235zM6.434 109.214h97.368v-.836H6.434v.836z" clip-rule="evenodd"/>
  </g>
</svg>
