<?xml version="1.0" standalone="no"?>
<!DOCTYPE svg PUBLIC "-//W3C//DTD SVG 20010904//EN"
 "http://www.w3.org/TR/2001/REC-SVG-20010904/DTD/svg10.dtd">
<svg version="1.0" xmlns="http://www.w3.org/2000/svg"
 width="2209.000000pt" height="882.000000pt" viewBox="0 0 2209.000000 882.000000"
 preserveAspectRatio="xMidYMid meet">

<g transform="translate(0.000000,882.000000) scale(0.100000,-0.100000)"
fill="#000000" stroke="none">
<path d="M5230 5475 l0 -255 860 0 860 0 0 255 0 255 -860 0 -860 0 0 -255z"/>
<path d="M9198 5326 c-56 -20 -85 -42 -113 -84 -64 -98 -44 -227 47 -295 114
-85 265 -49 324 77 32 69 31 128 -3 197 -48 92 -162 140 -255 105z"/>
<path d="M5232 4728 c3 -359 4 -375 26 -429 35 -87 90 -158 160 -206 115 -79
111 -78 677 -78 465 0 504 1 555 19 109 38 204 117 252 211 44 85 48 122 48
498 l0 357 -285 0 -285 0 -2 -327 -3 -328 -285 0 -285 0 -3 328 -2 327 -286 0
-285 0 3 -372z"/>
<path d="M11455 5001 c-23 -10 -53 -32 -67 -49 -43 -52 -53 -95 -53 -238 0
-125 1 -133 30 -189 40 -78 88 -105 190 -105 120 0 207 60 222 154 5 33 4 36
-20 36 -20 0 -27 -6 -32 -30 -8 -37 -39 -76 -75 -95 -46 -24 -150 -20 -191 8
-58 39 -69 74 -69 227 0 121 3 139 23 174 29 51 77 76 147 76 81 0 119 -23
154 -92 28 -57 51 -73 63 -42 19 50 -60 153 -134 173 -58 16 -143 13 -188 -8z"/>
<path d="M14085 5001 c-50 -22 -91 -69 -105 -119 -28 -104 -21 -290 16 -367
27 -58 83 -89 170 -93 114 -6 175 23 216 101 30 58 38 266 14 349 -18 62 -65
115 -118 134 -51 19 -147 16 -193 -5z m202 -59 c56 -39 68 -81 68 -227 0 -113
-3 -135 -21 -165 -32 -55 -77 -80 -143 -80 -74 0 -119 24 -149 81 -22 41 -23
53 -20 181 3 151 10 169 79 216 29 20 44 23 94 20 42 -3 70 -10 92 -26z"/>
<path d="M11912 4718 l3 -293 171 -3 c141 -2 173 0 183 12 25 30 1 36 -155 36
l-154 0 0 115 0 115 146 0 c145 0 145 0 142 23 -3 21 -6 22 -145 25 l-143 3 0
104 0 105 139 0 c153 0 171 3 171 31 0 18 -10 19 -180 19 l-180 0 2 -292z"/>
<path d="M12407 5003 c-4 -3 -7 -131 -7 -283 0 -235 2 -279 15 -290 12 -10 18
-10 30 0 12 10 15 53 17 238 l3 227 149 -228 c82 -126 156 -232 165 -236 40
-20 41 -10 41 290 l0 289 -25 0 -25 0 0 -236 c0 -129 -3 -233 -8 -231 -4 3
-75 109 -157 236 -116 178 -155 231 -171 231 -11 0 -24 -3 -27 -7z"/>
<path d="M12925 5000 c-4 -6 -1 -17 5 -25 9 -11 35 -15 96 -15 l84 0 0 -264
c0 -269 2 -281 38 -269 9 4 12 66 12 269 l0 264 84 0 c61 0 87 4 96 15 6 8 9
19 5 25 -9 14 -411 14 -420 0z"/>
<path d="M13450 4721 c0 -295 1 -306 38 -294 9 3 12 37 12 124 l0 119 89 0 89
0 67 -115 c68 -116 90 -141 115 -125 14 9 18 1 -84 172 l-46 78 33 14 c125 52
125 249 0 302 -22 10 -76 14 -173 14 l-140 0 0 -289z m300 224 c39 -20 50 -43
50 -104 0 -93 -48 -120 -212 -121 l-88 0 0 120 0 120 110 0 c79 0 119 -4 140
-15z"/>
<path d="M10660 4417 c-19 -6 -56 -32 -81 -57 -70 -70 -84 -160 -39 -250 37
-73 104 -110 197 -110 109 0 192 77 201 184 7 82 -4 119 -48 169 -60 68 -144
91 -230 64z"/>
<path d="M13991 4330 c-23 -27 -39 -54 -36 -60 3 -5 24 -10 45 -10 32 0 50 9
99 50 34 28 61 55 61 60 0 6 -29 10 -63 10 l-64 0 -42 -50z"/>
<path d="M11353 4209 c-10 -10 -13 -80 -13 -280 0 -147 3 -274 6 -283 9 -23
280 -23 347 0 57 19 101 69 116 130 17 65 14 253 -4 305 -37 103 -97 131 -295
137 -110 3 -148 1 -157 -9z m295 -109 c45 -28 54 -58 54 -180 0 -167 -19 -191
-158 -198 l-84 -5 0 202 0 201 78 0 c59 0 84 -5 110 -20z"/>
<path d="M11947 4213 c-4 -3 -7 -136 -7 -295 l0 -288 205 0 205 0 0 45 0 45
-150 0 -150 0 0 80 0 79 138 3 137 3 0 40 0 40 -137 3 -138 3 0 74 0 75 144 0
c154 0 156 1 156 54 0 43 -14 46 -210 46 -103 0 -190 -3 -193 -7z"/>
<path d="M12662 4207 c-9 -11 -12 -85 -10 -293 l3 -279 58 -3 57 -3 0 104 0
104 100 6 c153 8 222 51 240 146 9 52 -2 115 -27 150 -10 14 -41 37 -69 51
-44 22 -64 25 -194 28 -120 3 -148 1 -158 -11z m302 -108 c22 -17 26 -28 26
-69 0 -72 -27 -90 -136 -90 l-84 0 0 90 0 90 84 0 c69 0 88 -4 110 -21z"/>
<path d="M13223 4214 c-10 -4 -13 -73 -13 -295 l0 -289 55 0 55 0 0 110 0 111
62 -3 61 -3 59 -107 59 -108 54 0 c30 0 56 4 59 8 3 5 -24 59 -59 120 -54 95
-61 112 -46 117 35 11 81 70 89 115 17 96 -12 159 -94 200 -44 22 -63 25 -189
27 -77 1 -146 0 -152 -3z m291 -115 c21 -17 26 -29 26 -65 0 -30 -6 -50 -19
-63 -22 -22 -84 -34 -151 -29 l-45 3 -3 88 -3 87 84 0 c70 0 89 -3 111 -21z"/>
<path d="M13942 4211 c-12 -7 -222 -550 -222 -573 0 -5 25 -8 56 -6 l55 3 22
55 22 55 125 0 125 0 22 -55 c22 -55 22 -55 69 -58 26 -2 51 1 56 6 10 10
-195 561 -214 573 -17 11 -99 11 -116 0z m106 -238 c23 -65 42 -121 42 -125 0
-11 -180 -10 -180 1 0 17 83 241 89 241 4 0 26 -53 49 -117z"/>
<path d="M14440 4193 c-46 -24 -59 -38 -85 -87 -28 -55 -29 -64 -29 -179 0
-140 11 -182 61 -238 47 -51 113 -73 207 -67 130 9 226 87 226 184 0 22 -3 24
-54 24 -54 0 -54 0 -75 -43 -24 -50 -53 -67 -116 -67 -104 0 -126 36 -126 199
-1 138 12 174 66 197 76 31 146 7 176 -61 l20 -46 52 3 c47 3 52 5 55 28 5 44
-38 112 -92 145 -44 27 -60 30 -140 33 -84 3 -95 1 -146 -25z"/>
<path d="M14884 4206 c-3 -8 -4 -31 -2 -52 l3 -39 82 -3 83 -3 2 -237 3 -237
55 0 55 0 3 238 2 237 78 0 c87 0 102 8 102 55 0 17 -5 36 -12 43 -19 19 -447
17 -454 -2z"/>
<path d="M15441 4206 c-8 -9 -11 -95 -9 -292 l3 -279 58 -3 57 -3 0 289 c0
320 4 302 -65 302 -18 0 -38 -6 -44 -14z"/>
<path d="M15805 4209 c-97 -36 -136 -106 -143 -254 -8 -175 25 -262 115 -306
67 -34 208 -34 269 -2 50 27 88 70 104 118 18 54 9 65 -53 65 -51 0 -53 -1
-66 -35 -19 -54 -53 -75 -123 -75 -54 0 -63 3 -88 30 -31 34 -40 73 -39 185 0
101 15 143 58 172 68 46 155 23 189 -51 22 -46 23 -46 71 -46 28 0 53 5 56 11
13 19 -17 97 -48 129 -50 51 -83 63 -182 67 -49 1 -103 -2 -120 -8z"/>
<path d="M16412 4208 c-10 -14 -212 -553 -212 -569 0 -5 25 -9 54 -9 l55 0 22
60 22 61 125 -3 126 -3 22 -55 c22 -55 22 -55 69 -58 26 -2 51 0 56 5 10 10
-196 564 -214 575 -20 13 -114 9 -125 -4z m116 -236 c23 -64 42 -120 42 -125
0 -4 -40 -7 -90 -7 -65 0 -90 3 -90 13 0 18 82 237 89 237 3 0 25 -53 49 -118z"/>
<path d="M16925 4208 c-99 -35 -142 -133 -99 -224 21 -44 58 -66 179 -103 121
-37 145 -52 145 -91 0 -46 -40 -70 -118 -70 -63 0 -66 1 -103 40 -33 35 -44
40 -83 40 -53 0 -61 -9 -46 -54 12 -37 49 -75 100 -102 55 -30 209 -27 272 4
70 34 93 72 93 150 0 60 -2 65 -37 97 -33 31 -78 49 -230 91 -35 10 -68 45
-68 73 0 80 156 96 195 20 14 -27 20 -29 70 -29 49 0 55 2 55 20 0 49 -50 108
-112 135 -43 17 -167 19 -213 3z"/>
<path d="M8636 4101 c-9 -14 22 -179 51 -266 36 -111 95 -227 161 -320 71 -98
88 -109 110 -75 37 56 85 99 144 131 60 33 68 34 168 34 96 0 110 -3 158 -28
79 -41 128 -91 167 -169 32 -65 35 -78 35 -157 0 -67 -6 -99 -24 -144 l-24
-57 22 -13 c14 -8 76 -12 196 -12 147 0 189 4 262 22 89 23 244 79 252 91 2 4
-26 59 -63 122 -78 133 -70 130 -211 84 -75 -24 -101 -27 -227 -28 -91 -1
-146 3 -153 10 -8 8 13 51 75 158 47 81 85 155 85 166 0 26 -467 296 -490 283
-8 -5 -50 -70 -92 -143 -101 -174 -97 -171 -137 -123 -72 86 -142 258 -166
406 l-6 37 -144 0 c-79 0 -146 -4 -149 -9z"/>
<path d="M16862 3491 c-12 -17 -18 -32 -14 -35 12 -7 84 43 77 55 -12 18 -42
9 -63 -20z"/>
<path d="M11345 3417 c-10 -24 0 -337 10 -340 6 -1 11 30 13 75 l3 77 86 3
c58 2 88 7 91 16 3 9 -19 12 -87 12 l-91 0 0 70 0 70 96 0 c72 0 95 3 92 13
-7 18 -206 23 -213 4z"/>
<path d="M11704 3418 c-19 -29 -133 -332 -128 -340 9 -14 24 2 41 43 l15 39
93 0 92 0 12 -40 c6 -21 16 -42 21 -45 27 -17 15 36 -43 186 -62 158 -83 189
-103 157z m54 -115 c17 -43 33 -86 37 -95 6 -16 0 -18 -69 -18 -43 0 -76 4
-76 10 0 9 57 157 66 172 9 14 12 9 42 -69z"/>
<path d="M11990 3423 c-33 -13 -59 -48 -71 -95 -14 -61 -7 -153 15 -196 29
-57 108 -78 179 -49 40 17 55 35 63 75 9 43 -12 42 -33 -2 -30 -63 -114 -77
-164 -27 -28 28 -29 33 -29 124 0 89 2 96 26 121 22 21 36 26 75 26 53 0 81
-19 99 -66 6 -14 14 -22 20 -19 18 11 10 44 -19 77 -25 28 -35 32 -87 34 -32
2 -66 1 -74 -3z"/>
<path d="M12257 3424 c-10 -10 -8 -212 3 -258 5 -22 20 -51 35 -65 22 -23 34
-26 90 -26 57 0 68 3 92 28 28 27 28 29 31 178 3 122 1 150 -10 147 -10 -3
-14 -40 -18 -139 -3 -74 -9 -141 -13 -150 -20 -40 -106 -51 -147 -19 -24 18
-25 24 -30 161 -5 132 -12 164 -33 143z"/>
<path d="M12612 3253 l3 -178 99 0 c71 0 101 4 104 13 3 9 -19 12 -87 12 l-91
0 -2 162 c-2 120 -6 162 -16 166 -10 3 -12 -34 -10 -175z"/>
<path d="M12790 3415 c0 -12 12 -15 55 -15 l55 0 2 -160 c4 -214 22 -214 26 0
l2 160 56 0 c40 0 55 4 52 13 -3 8 -40 13 -126 15 -104 2 -122 0 -122 -13z"/>
<path d="M13163 3418 c-6 -7 -38 -85 -72 -172 -42 -108 -59 -162 -52 -169 7
-7 17 4 31 36 l21 47 90 0 90 0 20 -47 c14 -33 23 -43 30 -36 8 8 -7 57 -51
169 -73 187 -83 203 -107 172z m56 -121 c17 -46 31 -88 31 -95 0 -8 -22 -12
-70 -12 -39 0 -70 4 -70 10 0 17 64 180 71 180 3 0 20 -37 38 -83z"/>
<path d="M13394 3417 c-2 -7 -3 -87 -2 -177 l3 -165 65 -3 c150 -6 190 31 190
178 0 146 -32 178 -178 179 -50 1 -74 -3 -78 -12z m171 -32 c21 -8 39 -25 45
-40 14 -37 12 -165 -3 -195 -16 -31 -75 -52 -137 -48 l-45 3 -3 134 c-1 74 0
141 2 148 7 18 97 17 141 -2z"/>
<path d="M13872 3254 l3 -179 87 1 c137 1 158 24 158 174 0 149 -20 171 -162
178 l-88 4 2 -178z m194 113 c21 -25 24 -38 24 -117 0 -78 -3 -92 -23 -116
-20 -23 -33 -27 -95 -32 l-72 -5 0 153 0 152 71 -4 c63 -3 74 -7 95 -31z"/>
<path d="M14212 3253 l3 -178 104 0 c75 0 106 4 109 13 3 9 -20 12 -92 12
l-96 0 0 70 0 69 85 3 c48 2 85 7 85 13 0 6 -37 11 -85 13 l-85 3 0 64 0 64
93 3 c129 4 118 22 -16 26 l-107 3 2 -178z"/>
<path d="M14642 3253 c2 -112 7 -177 13 -175 16 3 13 344 -3 350 -10 3 -12
-34 -10 -175z"/>
<path d="M14767 3423 c-9 -8 -9 -338 0 -346 3 -4 12 -2 20 4 10 9 13 45 13
143 l0 131 93 -139 c50 -77 97 -140 102 -140 6 -1 11 66 13 177 2 141 0 178
-10 175 -9 -3 -14 -43 -18 -143 l-5 -139 -92 142 c-88 135 -101 151 -116 135z"/>
<path d="M15158 3415 c-45 -25 -60 -68 -60 -165 0 -103 17 -145 67 -166 44
-18 86 -18 130 0 46 20 67 56 69 118 l1 53 -62 3 c-52 2 -63 0 -63 -13 0 -11
11 -15 45 -15 l45 0 0 -37 c-1 -60 -38 -93 -105 -93 -27 0 -44 8 -66 29 -28
28 -29 34 -29 116 0 123 21 154 103 155 38 0 53 -5 72 -25 14 -13 25 -29 25
-35 0 -5 7 -10 15 -10 24 0 18 27 -14 62 -24 28 -35 32 -87 35 -40 2 -68 -2
-86 -12z"/>
<path d="M15446 3414 c-3 -9 -6 -84 -6 -169 0 -118 3 -155 14 -164 20 -16 208
-11 214 7 3 9 -20 12 -92 12 l-96 0 0 70 0 70 85 0 c69 0 85 3 85 15 0 12 -16
15 -85 15 l-85 0 0 65 0 65 90 0 c73 0 90 3 90 15 0 23 -205 22 -214 -1z"/>
<path d="M15747 3423 c-9 -8 -9 -338 0 -346 3 -4 12 -2 20 4 10 9 13 45 13
143 l0 131 95 -143 c53 -78 100 -140 105 -137 6 4 10 80 10 181 0 136 -3 175
-12 172 -9 -3 -14 -45 -18 -143 l-5 -138 -92 142 c-88 134 -101 150 -116 134z"/>
<path d="M16092 3253 c4 -236 22 -235 26 2 2 152 0 175 -13 175 -13 0 -15 -23
-13 -177z"/>
<path d="M16222 3253 l3 -178 104 0 c75 0 106 4 109 13 3 9 -20 12 -92 12
l-96 0 0 70 0 70 85 0 c69 0 85 3 85 15 0 12 -16 15 -85 15 l-85 0 0 65 0 64
93 3 c129 4 118 22 -16 26 l-107 3 2 -178z"/>
<path d="M16522 3253 c2 -110 7 -178 13 -178 6 0 11 33 13 73 l3 72 52 0 52 0
40 -70 c38 -66 59 -88 69 -72 2 4 -13 36 -35 72 -21 36 -38 68 -39 73 0 4 11
12 24 18 44 20 59 85 31 139 -18 36 -63 50 -158 50 l-67 0 2 -177z m189 118
c24 -29 24 -62 1 -91 -15 -18 -31 -23 -90 -28 l-72 -5 0 78 0 77 71 -4 c60 -3
74 -8 90 -27z"/>
<path d="M16842 3253 c4 -236 22 -235 26 2 2 152 0 175 -13 175 -13 0 -15 -23
-13 -177z"/>
<path d="M17063 3418 c-19 -31 -132 -331 -127 -339 9 -15 24 0 41 42 l15 39
94 0 c58 0 94 -4 94 -10 0 -6 7 -27 15 -47 12 -27 18 -34 27 -25 8 8 -5 52
-52 174 -69 177 -84 200 -107 166z m61 -132 c20 -50 36 -91 36 -93 0 -2 -34
-3 -75 -3 -42 0 -75 4 -75 10 0 9 57 157 67 173 7 12 7 12 47 -87z"/>
</g>
</svg>
