<?xml version="1.0" standalone="no"?>
<!DOCTYPE svg PUBLIC "-//W3C//DTD SVG 20010904//EN"
 "http://www.w3.org/TR/2001/REC-SVG-20010904/DTD/svg10.dtd">
<svg version="1.0" xmlns="http://www.w3.org/2000/svg"
 width="2209.000000pt" height="882.000000pt" viewBox="0 0 2209.000000 882.000000"
 preserveAspectRatio="xMidYMid meet">

<g transform="translate(0.000000,882.000000) scale(0.100000,-0.100000)"
fill="#000000" stroke="none">
<path d="M8015 4160 c0 -888 1 -1252 2 -808 2 445 2 1171 0 1615 -1 445 -2 81
-2 -807z"/>
<path d="M5230 5475 l0 -255 860 0 860 0 0 255 0 255 -860 0 -860 0 0 -255z"/>
<path d="M9646 5339 c-32 -5 -61 -11 -64 -14 -3 -3 5 -36 18 -73 32 -88 31
-183 0 -267 -32 -83 -122 -173 -205 -205 -151 -57 -327 -6 -421 122 -20 27
-41 47 -48 45 -17 -5 -108 -128 -148 -201 -76 -137 -132 -310 -140 -431 l-3
-50 147 -3 c146 -3 148 -2 152 20 22 116 32 153 58 220 33 88 121 228 142 228
8 0 53 -68 101 -151 74 -127 90 -150 108 -147 30 4 475 260 482 276 2 7 -34
80 -81 163 -47 82 -84 156 -81 163 9 22 142 31 239 16 46 -6 123 -25 172 -41
49 -16 95 -28 101 -25 14 5 135 213 135 233 0 32 -199 100 -355 123 -83 11
-226 11 -309 -1z"/>
<path d="M9210 5331 c-105 -34 -162 -108 -162 -210 -1 -65 18 -115 58 -155 91
-91 243 -86 322 10 88 106 60 268 -55 332 -46 25 -124 36 -163 23z"/>
<path d="M5230 4762 c0 -201 4 -362 11 -397 32 -172 172 -312 344 -344 94 -18
942 -14 1028 4 131 28 240 116 300 243 l32 67 3 383 3 382 -285 0 -286 0 -2
-327 -3 -328 -285 0 -285 0 -3 328 -2 327 -285 0 -285 0 0 -338z"/>
<path d="M11466 5010 c-38 -12 -83 -55 -108 -105 -16 -31 -22 -65 -26 -150 -9
-220 40 -314 178 -336 63 -10 146 6 191 36 66 43 107 155 57 155 -18 0 -29
-12 -48 -53 -31 -64 -71 -87 -150 -87 -75 0 -119 24 -147 80 -20 39 -23 60
-23 169 0 105 3 131 21 167 53 111 244 112 298 2 11 -24 21 -50 21 -56 0 -7 9
-12 19 -12 73 0 8 139 -84 181 -43 20 -147 24 -199 9z"/>
<path d="M14085 5002 c-49 -23 -88 -67 -107 -119 -20 -58 -16 -297 6 -348 36
-84 94 -117 203 -117 101 0 157 28 193 97 24 47 25 58 25 205 0 151 -1 156
-27 202 -40 67 -84 91 -177 95 -59 3 -85 0 -116 -15z m168 -46 c79 -33 113
-124 105 -277 -6 -102 -27 -153 -78 -187 -30 -20 -45 -23 -102 -20 -61 3 -71
7 -103 38 -45 44 -55 81 -55 213 0 111 12 160 48 201 39 43 123 58 185 32z"/>
<path d="M11910 4715 l0 -295 183 2 c180 3 182 3 185 26 l3 22 -160 0 -161 0
0 115 0 115 145 0 145 0 0 25 0 25 -145 0 -145 0 0 105 0 104 153 3 c149 3
152 3 155 26 l3 22 -180 0 -181 0 0 -295z"/>
<path d="M12405 4997 c-3 -7 -4 -138 -3 -292 l3 -280 25 0 25 0 5 234 5 234
150 -231 c141 -217 170 -253 195 -237 6 4 10 112 10 296 l0 289 -25 0 -25 0
-2 -237 -3 -238 -155 238 c-127 194 -159 237 -178 237 -12 0 -25 -6 -27 -13z"/>
<path d="M12924 4996 c-11 -29 7 -36 96 -36 l90 0 2 -267 c3 -260 4 -268 23
-268 19 0 20 8 23 267 l2 267 93 3 c84 3 92 5 92 23 0 19 -8 20 -208 23 -175
2 -208 0 -213 -12z"/>
<path d="M13452 4718 c3 -285 4 -293 23 -293 19 0 20 8 23 123 l3 122 87 0 87
0 70 -117 c73 -122 96 -146 116 -126 9 9 -5 40 -58 131 l-70 119 41 19 c56 27
81 73 81 151 0 67 -15 98 -69 137 -24 19 -44 21 -182 24 l-154 3 2 -293z m319
204 c24 -27 29 -41 29 -83 0 -89 -61 -122 -213 -117 l-82 3 -3 118 -3 119 122
-4 121 -3 29 -33z"/>
<path d="M10629 4402 c-150 -78 -158 -288 -14 -377 95 -59 229 -34 289 54 79
116 45 265 -75 325 -71 35 -130 35 -200 -2z"/>
<path d="M13991 4331 c-23 -27 -41 -54 -41 -60 0 -6 19 -11 45 -11 39 0 54 7
105 48 33 26 60 53 60 60 0 8 -19 12 -64 12 l-64 0 -41 -49z"/>
<path d="M11352 4208 c-9 -12 -12 -83 -10 -294 l3 -279 155 -3 c177 -3 219 7
269 63 41 47 51 91 51 225 0 134 -10 178 -51 224 -47 55 -94 68 -259 74 -121
4 -147 2 -158 -10z m278 -101 c57 -20 72 -59 72 -187 0 -90 -3 -116 -19 -142
-24 -41 -76 -60 -158 -56 l-60 3 -3 198 -2 197 67 -1 c38 0 84 -5 103 -12z"/>
<path d="M11947 4213 c-4 -3 -7 -136 -7 -295 l0 -288 205 0 205 0 0 45 0 45
-150 0 -150 0 0 80 0 80 141 0 140 0 -3 43 -3 42 -137 3 -138 3 0 74 0 74 148
3 147 3 3 33 c6 60 0 62 -208 62 -102 0 -190 -3 -193 -7z"/>
<path d="M12662 4212 c-9 -7 -12 -72 -10 -293 l3 -284 58 -3 57 -3 0 104 0
104 103 5 c175 8 240 57 240 182 0 108 -52 169 -159 186 -71 12 -274 13 -292
2z m303 -117 c19 -18 25 -35 25 -69 0 -68 -29 -86 -136 -86 l-84 0 0 90 0 90
85 0 c78 0 88 -2 110 -25z"/>
<path d="M13218 4214 c-5 -4 -8 -137 -8 -296 l0 -288 55 0 54 0 3 108 3 107
58 0 59 0 57 -105 56 -105 63 -3 c35 -2 62 1 62 7 0 5 -25 53 -55 105 -73 126
-72 122 -37 140 87 45 102 210 26 277 -50 44 -85 52 -239 57 -82 2 -153 1
-157 -4z m297 -119 c32 -31 34 -96 6 -124 -22 -22 -84 -34 -151 -29 l-45 3 -3
88 -3 87 86 0 c78 0 88 -2 110 -25z"/>
<path d="M13932 4208 c-11 -15 -212 -552 -212 -568 0 -7 21 -10 57 -8 l58 3
19 53 19 52 126 0 126 0 20 -52 21 -53 57 -3 c33 -2 57 1 57 7 0 16 -201 555
-212 569 -6 7 -34 12 -68 12 -34 0 -62 -5 -68 -12z m117 -244 c23 -61 41 -114
41 -118 0 -3 -41 -6 -91 -6 -67 0 -90 3 -87 13 15 57 84 235 90 229 3 -4 25
-57 47 -118z"/>
<path d="M14443 4196 c-72 -34 -102 -82 -115 -186 -7 -54 -7 -109 -1 -170 13
-114 38 -157 118 -195 50 -25 63 -27 144 -23 77 4 96 8 138 34 54 34 93 92 93
142 l0 32 -55 0 c-53 0 -55 -1 -72 -37 -25 -51 -61 -75 -117 -75 -53 -1 -93
22 -114 65 -16 33 -17 225 -2 272 14 44 54 68 111 69 62 1 94 -18 119 -70 l20
-44 55 0 c55 0 55 0 55 30 0 35 -29 97 -57 122 -68 62 -224 78 -320 34z"/>
<path d="M14887 4213 c-4 -3 -7 -28 -7 -55 l0 -48 85 0 85 0 0 -240 0 -240 60
0 60 0 0 240 0 240 84 0 c91 0 96 3 96 59 0 49 -8 51 -240 51 -119 0 -220 -3
-223 -7z"/>
<path d="M15443 4214 c-10 -4 -13 -73 -13 -295 l0 -289 60 0 60 0 -2 293 -3
292 -45 2 c-25 1 -51 0 -57 -3z"/>
<path d="M15800 4209 c-44 -18 -90 -59 -113 -102 -20 -38 -22 -56 -22 -187 0
-131 2 -149 22 -187 25 -47 71 -84 122 -102 48 -16 160 -14 213 5 56 19 115
75 129 125 18 57 9 69 -54 69 -53 0 -54 0 -69 -39 -20 -51 -56 -73 -117 -73
-93 0 -122 40 -129 177 -7 150 23 216 106 230 59 10 110 -17 141 -73 23 -43
23 -43 75 -40 l51 3 -1 37 c-2 56 -43 111 -105 142 -45 22 -65 26 -138 25 -48
0 -97 -5 -111 -10z"/>
<path d="M16412 4208 c-13 -16 -212 -546 -212 -565 0 -11 13 -13 56 -11 l57 3
20 53 20 52 126 0 126 0 20 -53 20 -52 58 -3 c31 -2 57 1 57 5 0 13 -203 557
-213 571 -6 7 -33 12 -67 12 -34 0 -62 -5 -68 -12z m116 -246 c23 -62 42 -115
42 -117 0 -8 -180 -5 -180 3 -1 18 86 240 91 234 3 -4 25 -58 47 -120z"/>
<path d="M16899 4197 c-61 -32 -89 -77 -89 -141 0 -97 44 -135 208 -182 109
-32 132 -46 132 -83 0 -86 -158 -104 -227 -26 -29 33 -35 36 -80 33 -47 -3
-48 -4 -47 -34 2 -44 29 -80 83 -112 39 -23 59 -27 141 -30 88 -3 99 -1 150
25 70 36 100 79 100 145 0 96 -45 134 -208 178 -102 28 -134 51 -130 94 2 25
11 35 41 50 52 25 101 15 143 -30 29 -30 39 -34 83 -34 49 0 51 1 51 28 0 37
-53 100 -104 123 -63 28 -189 26 -247 -4z"/>
<path d="M8635 4100 c-10 -16 23 -186 56 -285 17 -50 49 -126 72 -168 55 -102
148 -227 168 -227 8 0 31 21 49 46 124 173 393 191 548 37 99 -99 130 -255 77
-387 -21 -51 -24 -71 -16 -79 8 -8 73 -12 209 -11 179 0 206 3 292 26 52 14
126 40 164 57 l68 31 -31 52 c-17 29 -48 83 -69 120 -20 37 -44 69 -52 71 -8
2 -31 -4 -50 -11 -148 -62 -460 -86 -460 -36 0 8 38 81 84 161 58 100 82 151
77 161 -10 18 -464 282 -484 282 -8 0 -47 -57 -87 -127 -40 -71 -82 -141 -93
-157 l-21 -29 -32 37 c-69 80 -145 264 -169 409 l-6 37 -144 0 c-84 0 -146 -4
-150 -10z"/>
<path d="M6451 3900 c-66 -14 -142 -62 -183 -115 -109 -144 -55 -338 117 -417
59 -27 186 -31 273 -9 l52 13 0 64 c0 35 -3 64 -7 64 -5 -1 -33 -9 -63 -20
-110 -39 -218 -17 -260 53 -29 46 -27 133 3 177 40 59 71 75 145 74 46 0 82
-7 116 -22 27 -12 53 -22 58 -22 5 0 8 30 6 66 l-3 67 -44 13 c-61 18 -158 24
-210 14z"/>
<path d="M4810 3840 l0 -60 75 0 75 0 0 -215 0 -215 65 0 65 0 0 215 0 215 70
0 c52 0 70 3 70 14 0 7 3 34 6 60 l7 46 -217 0 -216 0 0 -60z"/>
<path d="M5319 3634 c-68 -147 -125 -271 -127 -275 -2 -5 27 -9 65 -9 l69 0
27 55 27 55 118 0 118 0 27 -55 27 -55 69 0 70 0 -29 63 c-15 34 -73 157 -128
272 l-99 210 -55 3 -54 3 -125 -267z m219 -6 l31 -68 -71 0 c-52 0 -69 3 -65
13 33 81 61 136 68 130 4 -4 21 -38 37 -75z"/>
<path d="M5870 3625 l0 -275 218 0 218 0 -58 60 -57 60 -90 0 -91 0 0 215 0
215 -70 0 -70 0 0 -275z"/>
<path d="M6966 3848 c-13 -29 -69 -151 -125 -271 -55 -119 -101 -220 -101
-222 0 -3 31 -5 68 -5 l69 0 24 53 24 52 120 0 120 0 25 -52 25 -52 72 -1 71
0 -129 273 -129 272 -55 3 -55 3 -24 -53z m113 -286 c-22 -2 -54 -2 -73 0
l-33 3 35 74 35 74 38 -74 37 -74 -39 -3z"/>
<path d="M16861 3491 c-24 -33 -26 -41 -9 -41 15 0 78 49 78 61 0 22 -50 8
-69 -20z"/>
<path d="M9206 3460 c-73 -23 -139 -97 -151 -171 -30 -178 147 -312 310 -235
60 28 77 46 106 111 45 103 -1 228 -104 282 -36 18 -122 26 -161 13z"/>
<path d="M11340 3250 c0 -153 2 -180 15 -180 12 0 15 16 15 80 l0 80 90 0 c73
0 90 3 90 15 0 12 -17 15 -90 15 l-91 0 3 68 3 67 93 3 c68 2 92 6 89 15 -2 8
-38 13 -110 15 l-107 3 0 -181z"/>
<path d="M11703 3418 c-17 -22 -137 -338 -130 -344 14 -14 34 6 46 45 l12 41
89 0 89 0 20 -45 c20 -45 41 -60 41 -27 -1 9 -29 89 -63 177 -61 157 -80 184
-104 153z m25 -226 c-39 -2 -72 -1 -74 1 -4 3 15 57 56 162 12 30 12 29 50
-65 l38 -95 -70 -3z"/>
<path d="M11956 3398 c-28 -28 -35 -45 -41 -91 -4 -31 -4 -83 0 -114 6 -46 13
-63 40 -90 30 -30 38 -33 95 -33 57 0 65 3 96 34 21 21 34 44 34 60 0 35 -16
33 -35 -3 -35 -68 -115 -83 -166 -32 -28 28 -29 33 -29 121 0 88 1 93 29 121
51 51 131 36 166 -32 9 -16 20 -29 25 -29 21 0 9 51 -19 82 -25 29 -35 32 -95
36 -64 4 -67 3 -100 -30z"/>
<path d="M12254 3416 c-11 -29 2 -260 16 -289 18 -37 58 -57 115 -57 56 0 97
20 113 55 17 37 17 308 0 303 -9 -3 -14 -45 -18 -142 -5 -136 -5 -138 -33
-162 -42 -36 -123 -27 -144 15 -4 9 -10 76 -13 150 -3 95 -9 136 -17 139 -7 2
-16 -3 -19 -12z"/>
<path d="M12610 3251 l0 -181 105 0 c87 0 105 3 105 15 0 12 -17 15 -90 15
l-90 0 -2 162 c-2 118 -6 162 -15 166 -10 3 -13 -37 -13 -177z"/>
<path d="M12790 3416 c0 -11 15 -16 53 -18 l52 -3 3 -162 c2 -136 5 -163 17
-163 13 0 15 26 15 165 l0 165 55 0 c42 0 55 3 55 15 0 13 -21 15 -125 15
-102 0 -125 -3 -125 -14z"/>
<path d="M13162 3417 c-13 -15 -132 -317 -132 -334 0 -30 29 -9 45 32 l17 46
91 -3 90 -3 15 -42 c13 -40 42 -60 42 -29 0 8 -28 86 -62 173 -67 173 -80 192
-106 160z m88 -218 c0 -5 -31 -9 -70 -9 -38 0 -70 4 -70 8 0 5 11 37 25 73 51
127 43 125 81 25 19 -48 34 -92 34 -97z"/>
<path d="M13394 3417 c-2 -7 -3 -87 -2 -177 l3 -165 91 0 c143 0 164 23 164
178 0 147 -31 177 -183 177 -46 0 -69 -4 -73 -13z m159 -28 c30 -8 42 -18 53
-44 16 -40 19 -151 4 -190 -13 -35 -68 -57 -133 -53 l-52 3 -3 134 c-1 74 0
141 2 148 6 16 76 17 129 2z"/>
<path d="M13870 3250 l0 -180 75 0 c148 0 175 28 175 181 0 92 -3 110 -20 132
-26 33 -75 47 -162 47 l-68 0 0 -180z m160 137 c47 -16 60 -47 60 -144 0 -71
-3 -85 -23 -109 -20 -23 -33 -27 -95 -32 l-72 -5 0 152 0 151 48 -1 c26 0 63
-5 82 -12z"/>
<path d="M14210 3250 l0 -180 110 0 c91 0 110 3 110 15 0 12 -17 15 -95 15
l-95 0 0 70 0 70 91 0 c68 0 90 3 87 13 -3 8 -33 13 -91 15 l-87 3 0 64 0 65
96 0 c72 0 95 3 92 13 -3 8 -37 13 -111 15 l-107 3 0 -181z"/>
<path d="M14640 3250 c0 -141 3 -181 13 -177 9 3 12 47 12 177 0 130 -3 174
-12 178 -10 3 -13 -37 -13 -178z"/>
<path d="M14764 3417 c-2 -7 -3 -87 -2 -177 3 -139 5 -165 18 -165 12 0 15 23
18 138 l3 139 92 -138 c51 -76 98 -140 105 -142 9 -3 12 37 12 178 0 141 -3
181 -12 178 -9 -3 -14 -45 -18 -141 l-5 -137 -92 140 c-51 77 -97 140 -103
140 -6 0 -13 -6 -16 -13z"/>
<path d="M15158 3414 c-35 -18 -54 -55 -61 -119 -10 -81 5 -162 37 -193 24
-24 34 -27 95 -27 55 0 74 4 91 20 31 27 50 76 50 125 l0 40 -65 0 c-51 0 -65
-3 -65 -15 0 -11 12 -15 45 -15 45 0 45 0 45 -36 0 -52 -44 -94 -100 -94 -33
0 -48 6 -71 29 -28 28 -29 33 -29 121 0 88 1 93 29 121 44 43 101 41 148 -6
19 -19 39 -35 44 -35 20 0 7 34 -25 66 -30 30 -40 34 -87 34 -30 -1 -66 -7
-81 -16z"/>
<path d="M15444 3417 c-2 -7 -3 -87 -2 -177 l3 -165 109 0 c79 0 111 4 114 13
3 9 -20 12 -92 12 l-96 0 0 70 0 70 85 0 c69 0 85 3 85 15 0 12 -16 15 -85 15
l-85 0 0 65 0 65 90 0 c73 0 90 3 90 15 0 12 -18 15 -105 15 -77 0 -107 -4
-111 -13z"/>
<path d="M15744 3417 c-2 -7 -3 -87 -2 -177 3 -139 5 -165 18 -165 12 0 15 23
18 139 l3 139 92 -139 c51 -76 98 -140 105 -142 9 -3 12 37 12 178 0 141 -3
181 -12 178 -10 -3 -14 -43 -16 -143 l-3 -139 -94 142 c-53 78 -100 142 -105
142 -6 0 -13 -6 -16 -13z"/>
<path d="M16090 3250 c0 -153 2 -180 15 -180 13 0 15 27 15 180 0 153 -2 180
-15 180 -13 0 -15 -27 -15 -180z"/>
<path d="M16220 3250 l0 -180 110 0 c91 0 110 3 110 15 0 12 -17 15 -95 15
l-95 0 0 70 0 70 85 0 c69 0 85 3 85 15 0 12 -16 15 -85 15 l-85 0 0 65 0 65
96 0 c72 0 95 3 92 13 -3 8 -37 13 -111 15 l-107 3 0 -181z"/>
<path d="M16520 3249 c0 -140 3 -180 13 -177 8 3 13 30 15 77 l3 72 51 -3 52
-3 42 -70 c24 -38 49 -70 56 -70 19 0 11 22 -30 89 -27 45 -32 61 -22 64 34
12 60 51 60 92 0 82 -41 110 -165 110 l-75 0 0 -181z m192 121 c10 -12 18 -32
18 -45 0 -47 -30 -67 -108 -73 l-72 -5 0 78 0 78 72 -5 c59 -5 75 -10 90 -28z"/>
<path d="M16840 3250 c0 -153 2 -180 15 -180 13 0 15 27 15 180 0 153 -2 180
-15 180 -13 0 -15 -27 -15 -180z"/>
<path d="M17063 3418 c-12 -15 -133 -323 -133 -338 0 -5 6 -10 14 -10 8 0 22
20 32 45 l17 45 88 0 88 0 20 -45 c20 -45 41 -60 41 -27 0 9 -29 89 -64 177
-61 156 -79 183 -103 153z m87 -215 c0 -9 -19 -13 -70 -13 -38 0 -70 2 -70 5
0 4 31 87 60 160 l12 30 34 -84 c19 -47 34 -91 34 -98z"/>
<path d="M6335 3215 c-44 -43 -31 -89 31 -116 44 -18 58 -44 30 -55 -8 -3 -24
0 -36 6 -18 9 -25 8 -42 -6 -20 -18 -20 -19 2 -36 34 -27 101 -24 134 7 46 42
27 91 -49 126 -42 20 -40 45 4 41 31 -2 61 11 61 28 0 12 -49 30 -81 30 -18 0
-39 -9 -54 -25z"/>
<path d="M4960 3144 c0 -124 20 -153 108 -154 43 0 57 5 77 25 23 22 25 32 25
120 l0 95 -30 0 -30 0 0 -83 c0 -87 -8 -107 -45 -107 -37 0 -45 20 -45 107 l0
83 -30 0 -30 0 0 -86z"/>
<path d="M5220 3110 l0 -120 30 0 29 0 3 75 3 76 58 -76 c49 -63 63 -75 88
-75 l29 0 0 120 0 120 -30 0 -29 0 -3 -70 -3 -71 -55 71 c-48 61 -59 70 -87
70 l-33 0 0 -120z"/>
<path d="M5510 3110 l0 -120 30 0 30 0 0 120 0 120 -30 0 -30 0 0 -120z"/>
<path d="M5600 3223 c0 -4 21 -58 47 -120 43 -104 49 -113 74 -113 24 0 30 9
77 120 l50 120 -31 0 c-30 0 -34 -4 -61 -70 -15 -39 -32 -70 -36 -70 -4 0 -20
32 -35 70 -26 64 -31 70 -57 70 -15 0 -28 -3 -28 -7z"/>
<path d="M5880 3110 l0 -120 75 0 c73 0 75 1 75 25 0 23 -4 25 -45 25 -41 0
-45 2 -45 25 0 23 4 25 45 25 41 0 45 2 45 25 0 23 -4 25 -45 25 -41 0 -45 2
-45 25 0 23 4 25 45 25 38 0 45 3 45 20 0 18 -7 20 -75 20 l-75 0 0 -120z"/>
<path d="M6080 3110 l0 -120 25 0 c23 0 25 4 25 45 0 25 3 45 8 45 4 -1 22
-21 40 -45 28 -39 38 -45 68 -45 l36 0 -29 38 c-44 56 -45 60 -23 82 26 26 27
81 2 103 -13 12 -37 17 -85 17 l-67 0 0 -120z m100 65 c16 -20 5 -45 -20 -45
-16 0 -20 7 -20 30 0 33 19 40 40 15z"/>
<path d="M6510 3110 l0 -120 30 0 30 0 0 120 0 120 -30 0 -30 0 0 -120z"/>
<path d="M6620 3110 l0 -120 60 0 c111 0 160 38 160 123 0 42 -5 54 -34 83
-33 33 -37 34 -110 34 l-76 0 0 -120z m142 53 c24 -22 23 -78 -2 -103 -11 -11
-33 -20 -50 -20 l-30 0 0 76 0 77 32 -7 c17 -3 40 -14 50 -23z"/>
<path d="M6906 3143 c-21 -49 -45 -103 -52 -120 l-14 -33 30 0 c23 0 33 6 42
25 10 22 18 25 60 25 42 0 50 -3 60 -25 8 -18 19 -25 40 -25 15 0 28 3 28 6 0
4 -23 58 -51 120 -47 103 -54 114 -78 114 -24 0 -31 -9 -65 -87z m82 -28 c16
-35 16 -35 -13 -35 -25 0 -31 13 -19 44 9 23 19 20 32 -9z"/>
<path d="M7140 3110 l0 -120 60 0 c111 0 160 38 160 123 0 42 -5 54 -34 83
-33 33 -37 34 -110 34 l-76 0 0 -120z m142 53 c24 -22 23 -78 -2 -103 -11 -11
-33 -20 -50 -20 l-30 0 0 76 0 77 32 -7 c17 -3 40 -14 50 -23z"/>
<path d="M4960 2915 c0 -13 139 -15 1195 -15 1056 0 1195 2 1195 15 0 13 -139
15 -1195 15 -1056 0 -1195 -2 -1195 -15z"/>
<path d="M5790 2792 c-20 -9 -44 -33 -54 -53 -18 -32 -18 -41 -7 -78 14 -50
58 -81 113 -81 49 0 68 8 68 31 0 16 -3 17 -24 8 -34 -16 -92 -3 -111 24 -50
72 24 154 113 124 18 -7 22 -5 22 11 0 14 -9 21 -31 26 -45 9 -50 8 -89 -12z"/>
<path d="M5940 2690 c0 -91 3 -110 15 -110 12 0 15 13 15 55 l0 55 50 0 50 0
0 -55 c0 -42 3 -55 15 -55 12 0 15 19 15 110 0 91 -3 110 -15 110 -11 0 -15
-11 -15 -40 l0 -40 -50 0 -50 0 0 40 c0 29 -4 40 -15 40 -12 0 -15 -19 -15
-110z"/>
<path d="M6140 2690 c0 -91 3 -110 15 -110 12 0 15 19 15 110 0 91 -3 110 -15
110 -12 0 -15 -19 -15 -110z"/>
<path d="M6220 2690 l0 -110 50 0 c37 0 50 4 50 14 0 9 -12 16 -32 18 l-33 3
-3 93 c-2 73 -6 92 -17 92 -12 0 -15 -20 -15 -110z"/>
<path d="M6340 2690 l0 -110 60 0 c46 0 60 3 60 14 0 10 -14 16 -42 18 -42 3
-43 4 -43 38 0 34 1 35 43 38 28 2 42 8 42 18 0 10 -12 14 -45 14 -41 0 -45 2
-45 25 0 23 4 25 45 25 33 0 45 4 45 15 0 12 -13 15 -60 15 l-60 0 0 -110z"/>
</g>
</svg>
