<?xml version="1.0" standalone="no"?>
<!DOCTYPE svg PUBLIC "-//W3C//DTD SVG 20010904//EN"
 "http://www.w3.org/TR/2001/REC-SVG-20010904/DTD/svg10.dtd">
<svg version="1.0" xmlns="http://www.w3.org/2000/svg"
 width="2209.000000pt" height="865.000000pt" viewBox="0 0 2209.000000 865.000000"
 preserveAspectRatio="xMidYMid meet">

<g transform="translate(0.000000,865.000000) scale(0.100000,-0.100000)"
fill="#000000" stroke="none">
<path d="M9655 5225 c-48 -17 -97 -70 -113 -123 -7 -22 -12 -99 -12 -173 0
-153 12 -192 73 -246 43 -38 82 -47 176 -41 53 3 77 9 109 31 69 45 111 157
60 157 -18 0 -28 -12 -44 -49 -27 -60 -60 -83 -129 -89 -70 -6 -97 2 -138 38
-48 41 -60 94 -56 232 4 122 18 161 70 200 40 30 126 35 183 10 40 -18 50 -29
71 -77 18 -40 30 -55 45 -55 44 0 16 95 -43 147 -60 52 -166 68 -252 38z"/>
<path d="M12270 5224 c-90 -39 -121 -100 -128 -249 -8 -184 22 -269 108 -312
83 -43 230 -25 282 33 41 47 52 94 52 234 1 156 -13 210 -69 259 -58 51 -172
67 -245 35z m189 -62 c14 -10 36 -38 49 -63 21 -41 23 -54 20 -176 -3 -115 -6
-135 -24 -160 -55 -74 -147 -95 -225 -51 -63 35 -79 81 -79 226 0 66 5 133 11
149 14 37 47 72 84 89 39 19 131 11 164 -14z"/>
<path d="M10100 4940 l0 -290 179 0 c181 0 206 5 181 35 -10 12 -43 15 -161
15 l-149 0 0 110 0 110 146 0 c145 0 145 0 142 23 -3 21 -6 22 -145 25 l-143
3 0 104 0 104 153 3 c149 3 152 3 155 26 l3 22 -180 0 -181 0 0 -290z"/>
<path d="M10590 4941 l0 -291 25 0 25 0 0 230 c0 127 3 230 8 230 4 0 74 -104
156 -231 136 -209 152 -230 175 -227 l26 3 0 285 0 285 -25 0 -25 0 -3 -233
-2 -234 -153 234 c-131 200 -157 233 -180 236 l-27 3 0 -290z"/>
<path d="M11110 5205 c0 -25 1 -25 90 -25 l90 0 0 -265 0 -265 25 0 25 0 0
265 0 264 93 3 c87 3 92 4 95 26 l3 22 -210 0 -211 0 0 -25z"/>
<path d="M11630 4940 l0 -290 25 0 25 0 0 120 0 120 88 0 87 0 71 -117 c59
-99 74 -119 97 -121 15 -2 27 0 27 5 0 4 -31 60 -69 125 l-68 116 38 18 c58
25 84 74 83 152 -1 75 -20 107 -84 140 -40 20 -59 22 -182 22 l-138 0 0 -290z
m284 226 c43 -18 66 -51 66 -98 0 -96 -39 -121 -190 -122 l-105 -1 -3 118 -3
117 101 0 c63 0 113 -5 134 -14z"/>
<path d="M7731 5169 c-41 -5 -79 -13 -84 -18 -6 -6 -2 -29 13 -63 34 -78 39
-187 11 -269 -97 -291 -474 -353 -659 -109 -19 25 -40 46 -46 48 -14 3 -99
-108 -154 -203 -77 -132 -137 -313 -149 -447 l-6 -68 155 0 155 0 13 72 c14
81 46 182 79 248 37 75 105 170 121 170 9 0 51 -62 103 -154 49 -85 95 -157
103 -160 19 -7 508 276 512 297 2 9 -37 87 -87 174 -62 107 -88 160 -81 167 6
6 60 12 120 14 121 5 229 -13 336 -53 36 -13 71 -22 78 -19 16 6 146 226 146
247 0 8 -34 27 -82 46 -195 77 -392 104 -597 80z"/>
<path d="M7213 5139 c-86 -42 -127 -117 -121 -220 4 -79 35 -134 100 -176 37
-25 51 -28 124 -28 75 0 86 3 125 30 142 100 127 327 -26 396 -56 26 -148 25
-202 -2z"/>
<path d="M12196 4584 c-29 -28 -66 -81 -66 -92 0 -7 17 -12 43 -12 36 0 52 7
105 50 34 28 62 55 62 60 0 17 -127 12 -144 -6z"/>
<path d="M12657 4437 c-113 -33 -157 -113 -157 -292 0 -162 32 -231 130 -280
51 -26 181 -25 240 2 78 36 124 96 118 156 -3 31 -4 32 -52 32 -48 0 -50 -2
-70 -40 -54 -105 -205 -95 -236 14 -15 53 -12 206 4 244 23 55 51 72 116 72
65 0 93 -17 117 -72 13 -32 16 -33 68 -33 l55 0 0 33 c-1 121 -177 207 -333
164z"/>
<path d="M13995 4439 c-77 -19 -138 -80 -156 -156 -14 -61 -11 -234 6 -289 16
-54 57 -100 115 -129 50 -26 180 -25 240 2 75 33 127 105 118 164 -3 22 -8 24
-52 24 -48 0 -50 -2 -70 -40 -27 -51 -76 -78 -134 -72 -83 9 -112 61 -112 202
0 153 31 200 130 200 65 0 93 -17 117 -72 13 -32 16 -33 68 -33 l55 0 0 33
c-1 117 -171 205 -325 166z"/>
<path d="M15113 4441 c-86 -22 -134 -75 -141 -153 -7 -96 48 -146 204 -188
119 -31 154 -64 124 -120 -32 -59 -186 -49 -220 15 -12 22 -20 25 -66 25 -29
0 -56 -5 -59 -10 -4 -6 4 -32 17 -58 19 -39 33 -52 82 -77 51 -25 70 -29 140
-28 150 1 236 65 236 175 0 87 -49 129 -197 169 -120 33 -143 49 -143 98 0 49
99 78 159 47 17 -9 36 -28 41 -42 9 -23 14 -25 62 -22 47 3 53 6 56 26 5 36
-41 97 -91 121 -49 24 -153 35 -204 22z"/>
<path d="M9542 4148 l3 -293 150 0 c173 0 229 14 269 68 37 51 46 92 46 220 0
140 -12 188 -57 233 -49 50 -112 64 -275 64 l-138 0 2 -292z m318 156 c33 -38
46 -119 35 -221 -5 -51 -13 -71 -35 -96 -27 -31 -32 -32 -119 -35 l-91 -4 0
197 0 197 91 -4 c87 -3 92 -4 119 -34z"/>
<path d="M10132 4148 l3 -293 200 0 200 0 0 45 0 45 -147 3 -148 3 0 74 0 75
135 0 c134 0 135 0 141 24 14 59 11 61 -139 64 l-137 3 0 74 0 74 143 3 142 3
3 48 3 47 -201 0 -200 0 2 -292z"/>
<path d="M10845 4428 c-3 -7 -4 -139 -3 -293 l3 -280 55 0 55 0 3 108 3 107
97 0 c72 0 107 5 137 19 135 61 141 257 10 325 -35 18 -61 21 -197 24 -126 3
-159 1 -163 -10z m267 -89 c47 -12 73 -55 64 -104 -11 -55 -37 -70 -132 -74
l-84 -3 0 96 0 96 58 0 c31 0 74 -5 94 -11z"/>
<path d="M11395 4428 c-3 -7 -4 -139 -3 -293 l3 -280 49 -3 c32 -2 52 1 57 10
5 7 9 57 9 111 l0 97 58 0 57 0 45 -86 c67 -128 72 -134 130 -134 27 0 52 5
55 10 4 6 -21 58 -54 116 -34 58 -61 109 -61 112 1 4 15 16 32 27 49 31 71 77
71 146 -1 72 -25 115 -85 149 -40 23 -55 25 -200 28 -126 3 -159 1 -163 -10z
m302 -110 c35 -36 35 -94 -2 -125 -22 -20 -37 -23 -106 -23 l-79 0 0 91 0 92
81 -5 c69 -4 84 -8 106 -30z"/>
<path d="M12101 4418 c-4 -13 -52 -140 -105 -282 -53 -142 -95 -265 -92 -272
3 -9 22 -14 50 -14 50 0 62 12 87 83 l13 38 124 -3 124 -3 22 -55 22 -55 51
-3 c35 -2 52 1 56 10 4 12 -186 534 -206 566 -5 7 -32 12 -73 12 -58 0 -65 -2
-73 -22z m127 -233 l40 -110 -85 -3 c-47 -2 -88 -1 -90 2 -3 2 14 57 38 121
23 64 45 112 49 108 5 -4 26 -57 48 -118z"/>
<path d="M13057 4434 c-4 -4 -7 -27 -7 -51 l0 -43 85 0 85 0 0 -232 c0 -128 4
-239 9 -246 5 -9 25 -12 57 -10 l49 3 5 240 5 240 85 5 85 5 0 45 0 45 -226 3
c-124 1 -228 -1 -232 -4z"/>
<path d="M13605 4428 c-3 -7 -4 -139 -3 -293 l3 -280 55 0 55 0 0 290 0 290
-53 3 c-36 2 -54 -1 -57 -10z"/>
<path d="M14573 4428 c-21 -27 -213 -562 -204 -571 4 -4 30 -7 57 -5 l48 3 22
55 22 55 125 3 125 3 12 -38 c22 -70 36 -83 86 -83 28 0 47 5 50 13 3 8 -42
140 -99 293 l-105 279 -64 3 c-44 2 -68 -1 -75 -10z m116 -234 c23 -61 41
-114 41 -118 0 -3 -40 -6 -90 -6 l-89 0 39 111 c41 112 49 133 55 127 2 -2 22
-53 44 -114z"/>
<path d="M8790 4211 c-109 -34 -170 -115 -170 -228 0 -240 332 -307 431 -88
24 52 24 138 0 191 -43 95 -166 154 -261 125z"/>
<path d="M6663 3813 c12 -136 73 -318 149 -448 64 -108 139 -205 160 -205 10
0 18 4 18 9 0 24 115 132 164 155 244 116 525 -47 544 -315 4 -58 0 -84 -23
-155 -15 -46 -26 -87 -23 -89 2 -3 49 -10 104 -16 198 -22 419 13 616 100 l48
20 -71 123 c-39 68 -75 127 -79 131 -4 5 -48 -5 -96 -22 -49 -16 -119 -35
-156 -41 -78 -14 -272 -10 -288 6 -7 7 17 58 81 168 49 87 89 165 87 174 -4
18 -495 305 -513 299 -6 -3 -51 -75 -101 -161 -52 -92 -95 -156 -104 -156 -16
0 -83 95 -121 170 -33 66 -65 167 -79 248 l-13 72 -155 0 -155 0 6 -67z"/>
<path d="M15027 3722 c-31 -33 -34 -42 -9 -42 22 1 75 47 67 60 -11 17 -30 11
-58 -18z"/>
<path d="M10163 3640 c-17 -10 -36 -27 -42 -38 -16 -30 -24 -116 -16 -178 6
-47 13 -64 41 -92 33 -33 36 -34 100 -30 60 4 70 7 95 36 28 31 40 82 19 82
-5 0 -16 -13 -25 -29 -35 -68 -115 -83 -166 -32 -28 28 -29 33 -29 120 0 108
18 139 85 147 51 6 86 -12 104 -54 17 -37 41 -43 41 -9 0 78 -127 126 -207 77z"/>
<path d="M13328 3644 c-45 -24 -58 -62 -58 -164 0 -137 33 -180 138 -180 81 0
132 58 132 150 l0 40 -65 0 c-50 0 -65 -3 -65 -14 0 -11 14 -16 48 -18 l47 -3
-3 -35 c-7 -79 -108 -119 -169 -66 -27 24 -28 27 -28 125 0 91 2 103 23 123
17 18 34 23 73 23 44 0 54 -4 80 -32 43 -49 70 -37 33 15 -34 49 -128 68 -186
36z"/>
<path d="M9532 3478 c3 -146 5 -173 18 -173 12 0 16 17 18 78 l3 77 84 0 c69
0 85 3 85 15 0 12 -16 15 -85 15 l-85 0 0 65 0 64 87 3 c58 2 88 7 91 16 3 9
-23 12 -107 12 l-111 0 2 -172z"/>
<path d="M9826 3483 c-38 -98 -62 -171 -57 -176 14 -14 26 -2 41 42 l13 41 89
0 89 0 19 -45 c19 -45 40 -60 40 -28 0 9 -28 88 -62 175 -83 215 -84 215 -172
-9z m133 17 l29 -75 -70 -3 c-39 -2 -72 -1 -74 1 -2 2 13 46 33 97 29 75 38
90 44 75 5 -11 22 -54 38 -95z"/>
<path d="M10440 3533 c0 -65 5 -135 11 -156 14 -51 57 -77 126 -77 44 0 58 5
85 29 l33 29 3 146 c3 124 1 146 -11 146 -13 0 -16 -23 -19 -136 -3 -135 -3
-136 -31 -160 -52 -44 -133 -25 -154 36 -7 19 -12 86 -12 148 -1 93 -4 112
-16 112 -12 0 -15 -20 -15 -117z"/>
<path d="M10792 3478 l3 -173 104 0 c73 0 106 4 108 12 3 9 -21 13 -89 15
l-93 3 -3 158 c-2 132 -5 157 -17 157 -13 0 -15 -25 -13 -172z"/>
<path d="M10972 3638 c3 -8 26 -14 56 -16 l51 -3 3 -156 c2 -114 6 -157 16
-161 9 -3 12 33 12 157 l0 161 55 0 c42 0 55 3 55 15 0 13 -21 15 -126 15 -96
0 -125 -3 -122 -12z"/>
<path d="M11276 3483 c-38 -98 -62 -171 -57 -176 14 -14 26 -2 41 42 l13 41
89 0 89 0 19 -45 c19 -45 40 -60 40 -28 0 9 -28 87 -62 175 -84 214 -84 214
-172 -9z m133 17 l29 -75 -70 -3 c-39 -2 -72 -1 -74 1 -2 2 13 46 33 97 29 75
38 90 44 75 5 -11 22 -54 38 -95z"/>
<path d="M11572 3478 l3 -173 91 0 c143 0 164 23 164 176 0 95 -14 140 -49
159 -11 5 -63 10 -116 10 l-95 0 2 -172z m182 131 c14 -7 30 -25 36 -42 13
-38 13 -147 0 -182 -13 -33 -64 -55 -130 -55 l-50 0 0 145 0 145 60 0 c32 0
70 -5 84 -11z"/>
<path d="M12042 3478 l3 -173 91 0 c143 0 164 23 164 176 0 147 -21 168 -163
169 l-97 0 2 -172z m195 118 c25 -22 28 -31 31 -103 2 -43 -1 -91 -7 -106 -14
-35 -64 -57 -131 -57 l-50 0 0 145 0 145 64 0 c54 0 70 -4 93 -24z"/>
<path d="M12382 3478 l3 -173 109 0 c79 0 111 4 114 13 3 9 -20 12 -92 12
l-96 0 0 70 0 70 85 0 c69 0 85 3 85 15 0 12 -16 15 -85 15 l-85 0 0 60 0 60
90 0 c73 0 90 3 90 15 0 12 -19 15 -110 15 l-110 0 2 -172z"/>
<path d="M12812 3478 c2 -126 6 -172 16 -176 9 -3 12 36 12 172 0 151 -2 176
-15 176 -13 0 -15 -23 -13 -172z"/>
<path d="M12940 3474 c0 -136 3 -175 13 -172 9 3 13 43 15 143 l3 139 95 -143
c52 -78 100 -141 107 -138 9 3 13 53 15 175 2 167 2 172 -18 172 -19 0 -20 -6
-20 -137 l0 -138 -90 138 c-50 77 -96 137 -105 137 -13 0 -15 -25 -15 -176z"/>
<path d="M13612 3478 l3 -173 109 0 c79 0 111 4 114 13 3 9 -20 12 -92 12
l-96 0 0 70 0 70 85 0 c69 0 85 3 85 15 0 12 -16 15 -85 15 l-85 0 0 60 0 60
90 0 c73 0 90 3 90 15 0 12 -19 15 -110 15 l-110 0 2 -172z"/>
<path d="M13912 3478 c2 -124 6 -172 15 -175 9 -3 13 31 15 139 l3 143 94
-142 c51 -79 99 -143 107 -143 11 0 14 32 14 175 0 147 -2 175 -15 175 -12 0
-15 -24 -17 -137 l-3 -136 -90 136 c-123 187 -126 186 -123 -35z"/>
<path d="M14260 3474 c0 -136 3 -175 13 -172 9 4 13 50 15 176 2 149 0 172
-13 172 -13 0 -15 -25 -15 -176z"/>
<path d="M14382 3478 l3 -173 108 -3 c90 -2 107 0 107 12 0 12 -18 16 -92 18
l-93 3 0 65 0 65 88 3 c64 2 87 6 84 15 -2 8 -34 13 -90 15 l-87 3 0 59 0 59
92 3 c62 2 93 7 96 16 3 9 -23 12 -107 12 l-111 0 2 -172z"/>
<path d="M14680 3475 c0 -149 2 -175 15 -175 12 0 15 15 15 75 l0 75 53 0 52
0 43 -75 c24 -41 50 -75 58 -75 22 0 17 14 -27 87 -29 48 -38 68 -28 72 60 20
81 120 34 166 -22 23 -32 25 -120 25 l-95 0 0 -175z m190 125 c26 -26 26 -72
-1 -96 -15 -13 -40 -20 -90 -22 l-69 -4 0 71 0 71 70 0 c57 0 74 -4 90 -20z"/>
<path d="M15000 3475 c0 -149 2 -175 15 -175 13 0 15 26 15 175 0 149 -2 175
-15 175 -13 0 -15 -26 -15 -175z"/>
<path d="M15213 3633 c-4 -10 -33 -85 -65 -167 -35 -91 -54 -154 -49 -159 14
-14 26 -2 41 42 l13 41 88 0 88 0 20 -45 c19 -44 41 -60 41 -30 0 8 -28 87
-62 175 -56 142 -65 160 -86 160 -12 0 -26 -8 -29 -17z m97 -200 c0 -9 -20
-13 -70 -13 -38 0 -70 2 -70 5 0 2 13 37 28 77 16 40 32 82 36 93 7 16 15 3
42 -65 18 -47 33 -91 34 -97z"/>
<path d="M7230 3194 c-180 -78 -178 -343 2 -418 149 -62 318 49 318 209 0 125
-101 225 -225 225 -33 -1 -76 -8 -95 -16z"/>
<path d="M11343 3119 c-41 -12 -63 -44 -63 -90 0 -47 26 -70 114 -99 75 -25
101 -48 92 -84 -8 -33 -40 -49 -96 -48 -37 0 -49 6 -72 31 -15 17 -32 31 -38
31 -18 0 -10 -36 13 -58 51 -48 154 -51 202 -6 22 20 26 32 23 66 -2 35 -9 46
-36 65 -18 12 -56 29 -85 39 -29 9 -60 23 -69 32 -36 31 -14 82 40 95 37 9 92
-11 104 -39 13 -28 38 -32 38 -5 0 26 -45 67 -81 75 -38 7 -45 7 -86 -5z"/>
<path d="M14511 3117 c-56 -20 -75 -56 -80 -149 -4 -95 10 -149 45 -177 59
-46 161 -32 201 28 13 19 23 40 23 47 0 23 -30 16 -39 -8 -15 -40 -46 -60 -96
-60 -38 -1 -51 4 -73 26 -25 25 -27 32 -27 121 0 89 1 96 27 121 50 51 144 32
169 -33 9 -24 39 -32 39 -10 0 20 -37 75 -58 86 -33 17 -95 21 -131 8z"/>
<path d="M9530 2995 c0 -139 11 -182 55 -211 58 -38 162 -16 189 41 22 46 23
295 2 295 -12 0 -15 -26 -18 -135 -3 -130 -4 -135 -30 -161 -37 -37 -99 -37
-136 0 -26 26 -27 31 -30 161 -3 108 -7 135 -18 135 -11 0 -14 -24 -14 -125z"/>
<path d="M9880 2945 c0 -149 2 -175 15 -175 13 0 15 22 15 135 0 74 3 135 8
135 4 0 46 -61 94 -135 50 -78 94 -135 103 -135 13 0 15 24 15 175 0 149 -2
175 -15 175 -13 0 -15 -22 -15 -142 l0 -143 -95 143 c-52 78 -102 142 -110
142 -13 0 -15 -27 -15 -175z"/>
<path d="M10224 3107 c-2 -7 -3 -85 -2 -172 3 -143 5 -160 21 -163 16 -3 17
10 17 172 0 151 -2 176 -15 176 -9 0 -18 -6 -21 -13z"/>
<path d="M10320 3113 c1 -4 27 -80 59 -167 56 -156 78 -193 101 -170 9 9 130
328 130 341 0 2 -8 3 -18 3 -13 0 -29 -34 -71 -150 -30 -83 -56 -148 -58 -146
-3 3 -28 69 -57 148 -36 102 -56 144 -69 146 -9 2 -17 0 -17 -5z"/>
<path d="M10670 2945 l0 -175 110 0 c91 0 110 3 110 15 0 12 -17 15 -95 15
l-95 0 0 65 0 64 87 3 c56 2 88 7 90 15 3 9 -20 13 -84 15 l-88 3 -3 63 -3 62
96 0 c78 0 95 3 95 15 0 12 -19 15 -110 15 l-110 0 0 -175z"/>
<path d="M10970 2945 c0 -149 2 -175 15 -175 12 0 15 15 15 76 l0 75 52 -3 52
-3 44 -72 c24 -40 50 -73 58 -73 21 0 18 8 -26 80 -36 59 -38 66 -22 77 43 30
52 47 52 94 0 40 -4 51 -31 73 -28 24 -38 26 -120 26 l-89 0 0 -175z m175 133
c46 -21 46 -101 -1 -118 -14 -6 -52 -10 -85 -10 l-59 0 0 70 0 70 60 0 c32 0
71 -5 85 -12z"/>
<path d="M11590 2945 c0 -168 1 -175 20 -175 19 0 20 7 20 175 0 168 -1 175
-20 175 -19 0 -20 -7 -20 -175z"/>
<path d="M11720 2945 l0 -175 88 0 c49 0 98 6 112 13 41 20 60 72 60 160 0
144 -32 177 -175 177 l-85 0 0 -175z m180 130 c67 -35 67 -228 0 -262 -14 -7
-53 -13 -87 -13 l-63 0 0 145 0 145 60 0 c35 0 74 -7 90 -15z"/>
<path d="M12139 3093 c-5 -15 -35 -90 -65 -166 -30 -76 -54 -143 -54 -148 0
-5 7 -9 15 -9 8 0 23 20 34 45 l20 45 84 0 84 0 17 -45 c16 -41 47 -63 46 -32
-1 6 -29 84 -63 172 -53 134 -66 161 -85 163 -16 3 -25 -4 -33 -25z m69 -107
c18 -45 32 -86 32 -90 0 -3 -32 -6 -71 -6 -53 0 -70 3 -66 13 2 6 17 47 33 89
16 43 32 78 35 78 3 0 20 -38 37 -84z"/>
<path d="M12380 2944 l0 -176 100 4 c93 3 101 5 127 30 25 26 28 35 31 125 5
161 -23 193 -170 193 l-88 0 0 -176z m175 136 c40 -15 58 -70 53 -158 -7 -100
-22 -115 -123 -120 l-75 -4 0 146 0 146 59 0 c33 0 71 -4 86 -10z"/>
<path d="M12850 2944 l0 -176 100 4 c93 3 101 5 127 30 25 26 28 35 31 125 5
161 -23 193 -170 193 l-88 0 0 -176z m175 136 c34 -13 55 -65 55 -135 0 -70
-21 -122 -55 -135 -15 -6 -53 -10 -86 -10 l-59 0 0 145 0 145 59 0 c33 0 71
-4 86 -10z"/>
<path d="M13190 2945 l0 -175 110 0 c91 0 110 3 110 15 0 12 -17 15 -95 15
l-95 0 0 65 0 64 87 3 c56 2 88 7 90 15 3 9 -20 13 -84 15 l-88 3 -3 63 -3 62
96 0 c78 0 95 3 95 15 0 12 -19 15 -110 15 l-110 0 0 -175z"/>
<path d="M13570 3105 c0 -12 13 -15 55 -15 l55 0 0 -160 c0 -136 2 -160 15
-160 13 0 15 24 15 160 l0 160 55 0 c42 0 55 3 55 15 0 13 -21 15 -125 15
-104 0 -125 -2 -125 -15z"/>
<path d="M13922 3068 c-11 -29 -41 -106 -66 -171 -25 -65 -46 -120 -46 -122 0
-3 7 -5 15 -5 9 0 24 20 35 45 l20 46 86 -3 87 -3 16 -42 c15 -43 41 -59 41
-25 -1 9 -29 87 -63 172 -51 127 -66 156 -84 158 -17 3 -25 -6 -41 -50z m81
-176 c-18 -2 -50 -2 -72 0 l-39 3 36 94 35 93 37 -93 36 -94 -33 -3z"/>
<path d="M14170 2945 l0 -175 110 0 c91 0 110 3 110 15 0 12 -17 15 -90 15
l-90 0 0 160 c0 153 -1 160 -20 160 -19 0 -20 -7 -20 -175z"/>
<path d="M14802 2963 c-34 -87 -64 -166 -68 -175 -4 -13 -1 -18 10 -18 10 0
24 18 36 45 l20 46 86 -3 87 -3 16 -42 c14 -39 33 -55 44 -35 2 4 -26 81 -62
172 -89 222 -88 222 -169 13z m123 13 l34 -86 -75 0 -74 0 24 63 c43 112 47
120 52 115 3 -3 20 -44 39 -92z"/>
</g>
</svg>
