<?xml version="1.0" standalone="no"?>
<!DOCTYPE svg PUBLIC "-//W3C//DTD SVG 20010904//EN"
 "http://www.w3.org/TR/2001/REC-SVG-20010904/DTD/svg10.dtd">
<svg version="1.0" xmlns="http://www.w3.org/2000/svg"
 width="2209.000000pt" height="876.000000pt" viewBox="0 0 2209.000000 876.000000"
 preserveAspectRatio="xMidYMid meet">

<g transform="translate(0.000000,876.000000) scale(0.100000,-0.100000)"
fill="#000000" stroke="none">
<path d="M9665 5338 c-53 -19 -87 -50 -111 -102 -21 -45 -24 -65 -24 -182 0
-72 5 -146 11 -165 31 -92 101 -138 210 -139 116 0 201 60 216 155 5 32 4 35
-20 35 -20 0 -27 -6 -32 -30 -15 -70 -74 -110 -162 -110 -77 0 -121 24 -151
81 -21 41 -23 54 -20 181 3 119 6 140 24 164 41 56 70 69 147 69 89 0 124 -21
156 -95 30 -71 70 -67 56 6 -9 49 -66 109 -122 128 -53 18 -133 20 -178 4z"/>
<path d="M12275 5335 c-53 -21 -91 -59 -112 -114 -26 -66 -26 -286 0 -353 34
-88 103 -123 223 -116 88 6 141 36 169 94 28 60 40 191 27 293 -14 101 -43
152 -107 185 -50 26 -146 31 -200 11z m182 -61 c62 -46 68 -64 71 -212 3 -128
2 -140 -20 -181 -29 -55 -75 -81 -143 -81 -66 0 -114 26 -143 78 -20 37 -23
54 -23 164 0 160 19 209 96 244 41 20 129 13 162 -12z"/>
<path d="M10096 5324 c-8 -20 -8 -527 0 -548 5 -14 31 -16 184 -16 180 0 205
5 180 35 -10 12 -43 15 -161 15 l-149 0 0 110 0 110 146 0 c145 0 145 0 142
23 -3 21 -6 22 -145 25 l-143 3 0 104 0 104 153 3 c144 3 152 4 152 23 0 19
-8 20 -176 23 -155 2 -177 0 -183 -14z"/>
<path d="M10597 5334 c-4 -4 -7 -135 -7 -291 l0 -283 25 0 25 0 2 237 3 237
155 -237 c139 -213 158 -237 180 -235 l25 3 3 265 c1 146 0 275 -3 288 -3 13
-13 22 -25 22 -11 0 -21 -1 -22 -2 -1 -2 -5 -107 -8 -235 l-5 -232 -151 232
c-144 220 -173 254 -197 231z"/>
<path d="M11112 5318 c3 -22 8 -23 90 -26 l88 -3 2 -262 3 -262 23 -3 22 -3 0
265 0 265 93 3 c84 3 92 5 92 23 0 19 -8 20 -208 23 l-208 2 3 -22z"/>
<path d="M11637 5333 c-4 -3 -7 -134 -7 -290 l0 -283 25 0 25 0 0 120 0 120
89 0 89 0 68 -117 c66 -112 92 -139 114 -116 7 7 -31 79 -111 210 l-20 32 33
14 c69 30 107 108 89 187 -23 104 -73 129 -257 130 -72 0 -134 -3 -137 -7z
m314 -81 c24 -27 29 -41 29 -83 0 -94 -62 -125 -230 -117 l-65 3 -3 118 -3
119 122 -4 121 -3 29 -33z"/>
<path d="M7213 5249 c-80 -40 -123 -112 -123 -202 0 -96 42 -165 124 -203 200
-93 398 110 299 307 -41 80 -94 113 -186 117 -58 2 -80 -1 -114 -19z"/>
<path d="M12173 4665 c-21 -25 -38 -51 -38 -58 0 -19 64 -20 93 -1 50 32 102
79 102 92 0 8 -18 12 -60 12 -58 0 -60 -1 -97 -45z"/>
<path d="M12668 4547 c-131 -38 -174 -119 -166 -320 5 -120 21 -168 70 -214
59 -55 186 -73 285 -39 83 28 152 123 129 181 -11 31 -116 13 -116 -20 0 -8
-13 -29 -28 -46 -36 -40 -108 -51 -158 -24 -52 28 -67 80 -62 212 5 146 31
183 129 183 56 0 92 -22 114 -69 18 -41 19 -41 72 -41 52 0 53 0 53 30 0 59
-53 125 -123 155 -53 22 -143 27 -199 12z"/>
<path d="M14025 4554 c-103 -26 -157 -71 -180 -147 -18 -60 -20 -228 -4 -292
14 -57 67 -118 121 -140 53 -21 148 -24 212 -5 65 18 132 81 141 132 11 59 3
70 -52 66 -44 -3 -49 -6 -64 -38 -24 -51 -52 -72 -103 -77 -55 -7 -99 10 -123
46 -22 33 -31 223 -14 283 15 49 59 78 119 78 59 0 95 -21 117 -69 18 -41 19
-41 72 -41 50 0 53 1 53 25 0 62 -52 130 -123 160 -39 16 -139 27 -172 19z"/>
<path d="M15109 4546 c-113 -30 -166 -123 -125 -220 20 -48 58 -73 155 -102
154 -45 171 -56 171 -104 0 -82 -196 -94 -232 -15 -11 24 -16 26 -67 23 -53
-3 -56 -4 -53 -28 7 -49 36 -85 94 -114 47 -23 71 -28 130 -29 168 -1 268 83
244 205 -14 71 -55 101 -192 138 -108 29 -144 51 -144 89 0 53 46 78 121 68
42 -6 79 -31 79 -53 0 -17 36 -27 81 -22 32 3 34 5 32 38 -2 47 -62 103 -134
124 -62 19 -97 19 -160 2z"/>
<path d="M9545 4538 c-3 -7 -4 -139 -3 -293 l3 -280 155 0 c142 0 159 2 203
24 34 16 55 36 75 69 25 43 27 57 30 172 4 145 -6 195 -50 246 -50 57 -84 67
-255 72 -123 3 -154 1 -158 -10z m310 -121 c28 -28 34 -42 40 -99 8 -71 0
-156 -17 -201 -16 -42 -55 -57 -148 -57 l-80 0 0 195 0 195 86 0 c84 0 87 -1
119 -33z"/>
<path d="M10135 4538 c-3 -7 -4 -139 -3 -293 l3 -280 180 -3 c228 -3 227 -4
223 51 l-3 42 -147 3 -148 3 0 74 0 74 131 3 c144 3 158 9 145 61 l-6 27 -135
0 -135 0 0 75 0 74 143 3 142 3 0 45 0 45 -193 3 c-149 2 -194 0 -197 -10z"/>
<path d="M10845 4538 c-3 -7 -4 -139 -3 -293 l3 -280 43 -3 c66 -5 72 5 72
119 l0 99 88 0 c105 0 171 20 207 61 74 89 51 229 -47 281 -38 20 -61 23 -200
26 -127 3 -159 1 -163 -10z m280 -92 c59 -25 74 -93 31 -143 -23 -26 -31 -28
-110 -32 l-86 -3 0 96 0 96 65 0 c36 0 81 -6 100 -14z"/>
<path d="M11397 4543 c-4 -3 -7 -133 -7 -289 0 -311 -4 -294 64 -294 50 0 56
13 56 122 l0 98 58 0 57 0 49 -92 c61 -113 75 -128 125 -128 65 0 65 14 0 125
-32 55 -58 105 -58 110 -1 6 13 18 29 27 46 26 70 74 70 141 0 91 -41 148
-124 172 -51 15 -306 22 -319 8z m277 -97 c58 -24 69 -107 18 -146 -20 -16
-40 -20 -103 -20 l-79 0 0 90 0 90 65 0 c36 0 81 -6 99 -14z"/>
<path d="M12113 4538 c-19 -23 -214 -558 -208 -568 9 -14 91 -12 102 3 6 6 18
34 28 60 l18 48 125 -3 126 -3 20 -50 c24 -61 31 -66 81 -63 32 2 40 7 42 23
2 11 -43 142 -100 290 l-102 270 -61 3 c-41 2 -64 -1 -71 -10z m112 -228 c21
-58 40 -111 42 -117 4 -10 -18 -13 -90 -13 l-94 0 46 125 c25 68 48 121 52
117 3 -4 23 -54 44 -112z"/>
<path d="M13057 4543 c-4 -3 -7 -26 -7 -50 l0 -43 85 0 85 0 0 -233 c0 -168 3
-236 12 -245 7 -7 26 -12 44 -12 67 0 64 -12 64 251 l0 239 84 0 c89 0 96 4
96 54 0 44 -12 46 -240 46 -119 0 -220 -3 -223 -7z"/>
<path d="M13607 4544 c-4 -4 -7 -134 -7 -290 0 -310 -4 -294 63 -294 59 0 58
-8 55 301 l-3 284 -50 3 c-28 2 -54 0 -58 -4z"/>
<path d="M14561 4508 c-61 -147 -193 -519 -188 -532 7 -17 72 -23 93 -8 6 4
20 31 30 60 l19 52 126 0 126 0 18 -47 c10 -27 25 -54 33 -60 19 -15 88 -17
97 -3 6 10 -189 544 -208 568 -5 7 -33 12 -69 12 l-59 0 -18 -42z m168 -315
c1 -10 -23 -13 -89 -13 -49 0 -90 2 -90 5 0 4 46 129 82 225 9 22 14 13 53
-90 24 -63 44 -121 44 -127z"/>
<path d="M8760 4309 c-49 -20 -93 -63 -116 -113 -72 -154 31 -319 201 -320
130 -1 219 90 220 224 0 81 -30 140 -93 184 -37 26 -54 31 -115 33 -40 2 -83
-2 -97 -8z"/>
<path d="M6664 3923 c18 -197 136 -468 268 -618 16 -19 35 -35 42 -35 6 0 22
19 36 42 28 46 106 109 164 133 186 78 401 -6 492 -190 26 -54 29 -70 29 -160
0 -84 -4 -109 -24 -153 -15 -33 -20 -57 -15 -62 5 -5 56 -15 113 -21 167 -18
369 10 542 76 114 44 113 33 29 178 -40 70 -76 127 -80 127 -3 0 -33 -11 -66
-24 -99 -40 -210 -58 -338 -54 -69 2 -120 8 -127 15 -8 8 12 50 80 169 51 86
91 164 89 172 -2 8 -117 80 -257 160 -239 138 -254 145 -267 127 -7 -10 -51
-83 -96 -162 -53 -92 -88 -143 -99 -143 -19 0 -72 77 -124 180 -36 71 -85 237
-85 286 l0 24 -156 0 -157 0 7 -67z"/>
<path d="M15036 3839 c-25 -20 -35 -49 -17 -49 16 0 71 51 65 61 -8 14 -19 11
-48 -12z"/>
<path d="M10173 3755 c-17 -7 -39 -28 -48 -46 -39 -74 -27 -225 21 -270 37
-35 127 -39 173 -7 37 25 60 73 43 90 -7 7 -16 0 -28 -23 -24 -47 -42 -58 -95
-59 -37 0 -52 5 -73 26 -24 25 -26 32 -26 121 0 91 1 96 29 124 51 51 131 36
166 -32 17 -31 35 -39 35 -14 0 78 -110 128 -197 90z"/>
<path d="M13345 3760 c-11 -4 -31 -20 -45 -35 -22 -23 -25 -37 -29 -112 -6
-149 29 -203 130 -203 85 0 145 68 137 155 -3 30 -4 30 -65 33 -52 2 -63 0
-63 -13 0 -11 12 -15 50 -15 55 0 56 -2 40 -61 -13 -46 -47 -69 -100 -69 -33
0 -48 6 -71 29 -28 28 -29 33 -29 121 0 88 1 93 29 121 44 43 101 41 148 -6
37 -37 53 -44 53 -22 0 58 -115 106 -185 77z"/>
<path d="M9537 3753 c-12 -12 -8 -331 4 -339 19 -11 29 18 29 89 l0 67 85 0
c69 0 85 3 85 15 0 12 -16 15 -85 15 l-85 0 0 65 0 64 87 3 c58 2 88 7 91 16
3 9 -22 12 -100 12 -58 0 -108 -3 -111 -7z"/>
<path d="M9832 3603 c-70 -181 -71 -184 -56 -190 7 -2 20 16 29 42 l18 45 91
0 92 0 14 -42 c15 -40 40 -63 40 -36 0 7 -28 86 -62 175 -84 217 -84 217 -166
6z m116 40 c17 -43 33 -86 37 -95 6 -16 0 -18 -69 -18 -42 0 -76 2 -76 5 0 4
28 81 59 158 6 15 12 27 15 27 2 0 18 -35 34 -77z"/>
<path d="M10440 3640 c0 -181 28 -230 132 -230 103 1 128 43 128 223 0 103 -3
127 -14 127 -12 0 -15 -27 -18 -136 -3 -135 -3 -136 -31 -160 -18 -15 -41 -24
-63 -24 -83 0 -104 41 -104 205 0 96 -3 115 -15 115 -12 0 -15 -20 -15 -120z"/>
<path d="M10792 3588 l3 -173 104 0 c73 0 106 4 108 12 3 9 -21 13 -89 15
l-93 3 -3 158 c-2 132 -5 157 -17 157 -13 0 -15 -25 -13 -172z"/>
<path d="M10972 3748 c3 -8 26 -14 56 -16 l51 -3 3 -156 c2 -114 6 -157 16
-161 9 -3 12 33 12 157 l0 160 52 3 c30 2 53 8 56 16 3 9 -26 12 -123 12 -97
0 -126 -3 -123 -12z"/>
<path d="M11282 3603 c-70 -181 -71 -184 -56 -190 7 -2 20 16 29 42 l18 45 91
0 92 0 14 -42 c16 -43 40 -63 39 -31 0 10 -28 88 -62 173 -84 210 -85 210
-165 3z m116 40 c17 -43 33 -86 37 -95 6 -16 0 -18 -69 -18 -42 0 -76 2 -76 5
0 4 28 81 59 158 6 15 12 27 15 27 2 0 18 -35 34 -77z"/>
<path d="M11574 3747 c-2 -7 -3 -85 -2 -172 l3 -160 70 -3 c146 -6 185 31 185
174 0 149 -24 174 -165 174 -61 0 -87 -4 -91 -13z m181 -23 c30 -12 45 -60 45
-143 0 -69 -3 -84 -23 -107 -20 -23 -33 -27 -95 -32 l-72 -5 0 147 0 146 64 0
c35 0 72 -3 81 -6z"/>
<path d="M12044 3747 c-2 -7 -3 -85 -2 -172 l3 -160 70 -3 c146 -6 185 31 185
174 0 149 -24 174 -165 174 -61 0 -87 -4 -91 -13z m196 -37 c27 -27 33 -57 28
-145 -5 -100 -20 -116 -117 -123 l-71 -5 0 147 0 146 70 0 c56 0 74 -4 90 -20z"/>
<path d="M12384 3747 c-2 -7 -3 -85 -2 -172 l3 -160 108 0 c132 0 147 19 17
23 l-90 3 0 69 0 70 86 0 c64 0 85 3 82 13 -3 8 -32 13 -86 15 l-82 3 0 59 0
59 87 3 c58 2 88 7 91 16 6 18 -207 17 -214 -1z"/>
<path d="M12812 3590 c2 -105 7 -170 13 -170 6 0 11 65 13 170 2 148 0 170
-13 170 -13 0 -15 -22 -13 -170z"/>
<path d="M12942 3590 c4 -212 21 -234 28 -36 l5 139 93 -142 c53 -83 97 -141
105 -138 9 3 12 47 12 173 0 144 -2 169 -15 169 -12 0 -16 -24 -20 -132 l-5
-131 -89 134 c-49 74 -95 134 -103 134 -11 0 -13 -31 -11 -170z"/>
<path d="M13614 3747 c-2 -7 -3 -85 -2 -172 l3 -160 108 0 c132 0 147 19 17
23 l-90 3 0 69 0 70 86 0 c64 0 85 3 82 13 -3 8 -32 13 -86 15 l-82 3 0 59 0
59 87 3 c58 2 88 7 91 16 6 18 -207 17 -214 -1z"/>
<path d="M13912 3590 c4 -212 21 -234 28 -35 l5 140 89 -135 c91 -137 104
-153 118 -144 4 3 8 81 8 175 0 142 -2 169 -15 169 -12 0 -15 -24 -17 -137
l-3 -138 -90 137 c-123 188 -126 187 -123 -32z"/>
<path d="M14260 3584 c0 -136 3 -175 13 -172 9 4 13 50 15 176 2 149 0 172
-13 172 -13 0 -15 -25 -15 -176z"/>
<path d="M14382 3588 l3 -173 108 -3 c90 -2 107 0 107 12 0 12 -18 16 -92 18
l-93 3 0 65 0 65 88 3 c64 2 87 6 84 15 -2 8 -34 13 -90 15 l-87 3 0 59 0 59
92 3 c62 2 93 7 96 16 3 9 -23 12 -107 12 l-111 0 2 -172z"/>
<path d="M14682 3590 c2 -103 7 -171 13 -173 6 -1 11 29 13 71 l3 72 53 0 53
0 39 -70 c37 -67 58 -88 68 -71 3 4 -14 38 -36 76 -31 51 -38 70 -28 73 51 17
75 88 49 145 -16 36 -50 47 -145 47 l-84 0 2 -170z m190 123 c28 -25 24 -77
-8 -102 -21 -16 -41 -21 -90 -21 l-64 0 0 70 0 70 72 0 c52 0 76 -4 90 -17z"/>
<path d="M15002 3590 c2 -105 7 -170 13 -170 6 0 11 65 13 170 2 148 0 170
-13 170 -13 0 -15 -22 -13 -170z"/>
<path d="M15162 3606 c-69 -177 -70 -180 -57 -185 6 -2 19 14 30 37 l19 42 89
0 88 0 19 -45 c18 -43 40 -60 40 -32 0 7 -28 84 -63 172 -85 216 -85 216 -165
11z m133 -13 l24 -63 -74 0 c-41 0 -75 4 -75 8 0 8 39 111 62 162 l11 25 14
-34 c8 -19 25 -63 38 -98z"/>
<path d="M11350 3230 c-43 -10 -70 -43 -70 -84 0 -46 23 -72 83 -92 100 -32
127 -51 127 -90 0 -66 -153 -82 -182 -18 -13 28 -38 32 -38 6 0 -27 42 -62 86
-72 82 -19 164 26 164 89 0 43 -28 69 -105 97 -81 29 -105 48 -105 80 0 50 64
75 125 50 20 -9 39 -25 42 -36 6 -22 33 -28 33 -6 0 25 -41 65 -78 76 -20 5
-39 9 -42 9 -3 -1 -21 -5 -40 -9z"/>
<path d="M14511 3227 c-58 -20 -76 -56 -79 -156 -6 -139 29 -193 126 -194 61
-1 110 25 128 68 18 43 17 45 -1 45 -9 0 -19 -10 -24 -22 -25 -66 -119 -85
-169 -34 -26 25 -27 32 -27 121 0 90 1 96 28 122 50 51 143 31 168 -34 5 -13
16 -23 24 -23 32 0 -10 85 -49 100 -45 17 -91 19 -125 7z"/>
<path d="M9530 3105 c0 -182 25 -226 129 -228 59 -1 97 21 117 68 21 50 20
285 -1 285 -13 0 -15 -20 -15 -120 0 -146 -12 -182 -64 -200 -28 -9 -44 -9
-72 0 -52 18 -64 54 -64 200 0 100 -2 120 -15 120 -13 0 -15 -21 -15 -125z"/>
<path d="M9880 3055 c0 -147 2 -175 15 -175 12 0 15 25 17 142 l3 143 93 -143
c51 -78 99 -142 107 -142 13 0 15 28 15 175 0 147 -2 175 -15 175 -12 0 -15
-25 -17 -142 l-3 -142 -92 142 c-53 81 -99 142 -108 142 -13 0 -15 -25 -15
-175z"/>
<path d="M10225 3218 c-3 -8 -4 -86 -3 -173 3 -134 5 -160 18 -160 13 0 15 25
15 169 0 127 -3 170 -12 173 -7 3 -15 -2 -18 -9z"/>
<path d="M10320 3228 c0 -13 121 -333 129 -341 22 -22 40 8 94 160 61 169 64
183 45 183 -8 0 -36 -67 -67 -155 -30 -85 -56 -153 -58 -151 -2 2 -28 70 -57
152 -36 100 -59 150 -70 152 -9 2 -16 2 -16 0z"/>
<path d="M10670 3055 l0 -175 110 0 c91 0 110 3 110 15 0 12 -17 15 -95 15
l-95 0 0 65 0 64 87 3 c56 2 88 7 90 15 3 9 -20 13 -84 15 l-88 3 -3 63 -3 62
96 0 c78 0 95 3 95 15 0 12 -19 15 -110 15 l-110 0 0 -175z"/>
<path d="M10970 3056 c0 -150 2 -176 15 -176 12 0 15 15 15 75 l0 75 53 0 52
0 43 -75 c23 -41 49 -75 57 -75 21 0 20 3 -25 79 -44 74 -46 81 -26 81 8 0 24
12 35 26 29 37 28 95 -3 131 -23 26 -29 28 -120 31 l-96 4 0 -176z m190 124
c11 -11 20 -33 20 -50 0 -51 -29 -70 -110 -70 l-70 0 0 70 0 70 70 0 c57 0 74
-4 90 -20z"/>
<path d="M11595 3218 c-3 -8 -4 -86 -3 -173 3 -134 5 -160 18 -160 13 0 15 25
15 169 0 127 -3 170 -12 173 -7 3 -15 -2 -18 -9z"/>
<path d="M11720 3055 l0 -175 83 0 c143 0 176 33 176 175 0 142 -33 175 -176
175 l-83 0 0 -175z m187 130 c33 -23 46 -78 40 -159 -8 -97 -29 -116 -128
-116 l-69 0 0 145 0 145 68 0 c44 0 75 -5 89 -15z"/>
<path d="M12093 3078 c-77 -197 -78 -198 -60 -198 8 0 22 20 32 45 l17 46 91
-3 90 -3 15 -42 c7 -24 20 -43 28 -43 8 0 14 4 14 8 0 4 -29 82 -64 172 -85
220 -85 220 -163 18z m84 -76 c-38 -2 -72 -1 -74 2 -4 4 50 157 64 180 3 4 22
-34 42 -85 l37 -94 -69 -3z"/>
<path d="M12380 3055 l0 -175 80 0 c145 0 181 34 179 172 -1 146 -33 178 -176
178 l-83 0 0 -175z m195 121 c29 -29 39 -79 32 -159 -8 -86 -32 -107 -128
-107 l-69 0 0 145 0 145 70 0 c61 0 74 -3 95 -24z"/>
<path d="M12850 3055 l0 -175 83 0 c143 0 176 33 176 175 0 142 -33 175 -176
175 l-83 0 0 -175z m195 121 c29 -29 39 -79 32 -159 -8 -86 -32 -107 -128
-107 l-69 0 0 145 0 145 70 0 c61 0 74 -3 95 -24z"/>
<path d="M13190 3055 l0 -175 110 0 c91 0 110 3 110 15 0 12 -17 15 -95 15
l-95 0 0 65 0 64 87 3 c56 2 88 7 90 15 3 9 -20 13 -84 15 l-88 3 -3 63 -3 62
96 0 c78 0 95 3 95 15 0 12 -19 15 -110 15 l-110 0 0 -175z"/>
<path d="M13572 3218 c3 -8 26 -14 56 -16 l52 -3 0 -160 c0 -135 2 -159 15
-159 13 0 15 24 15 160 l0 160 55 0 c42 0 55 3 55 15 0 13 -21 15 -126 15 -96
0 -125 -3 -122 -12z"/>
<path d="M13943 3218 c-7 -10 -52 -121 -129 -321 -4 -12 -1 -17 9 -17 9 0 25
20 36 45 l20 46 88 -3 88 -3 15 -42 c13 -40 40 -60 40 -30 0 6 -28 84 -63 172
-61 156 -80 184 -104 153z m72 -155 l24 -63 -74 0 c-41 0 -75 2 -75 5 0 2 13
37 28 77 16 40 32 82 37 93 8 22 13 14 60 -112z"/>
<path d="M14175 3218 c-3 -8 -4 -86 -3 -173 l3 -160 108 -3 c91 -2 107 0 107
13 0 12 -16 15 -90 15 l-89 0 -3 157 c-2 114 -6 157 -15 161 -7 2 -15 -3 -18
-10z"/>
<path d="M14861 3211 c-24 -45 -128 -320 -123 -325 12 -13 22 -4 41 39 l20 45
86 0 86 0 19 -45 c18 -42 40 -60 40 -32 0 6 -28 84 -63 172 -64 162 -83 189
-106 146z m74 -148 l24 -63 -74 0 c-41 0 -75 2 -75 5 0 3 17 46 37 97 l37 92
14 -34 c7 -18 24 -62 37 -97z"/>
</g>
</svg>
